# Blender v2.79 (sub 0) OBJ File: 'castle_dungeon.blend'
# www.blender.org
o Cube.035_Cube.046
v -9.101682 -5.314993 -24.086269
v -9.101682 2.205644 -24.086269
v -10.143226 -5.314993 -24.103056
v -10.143226 2.205644 -24.103056
v -9.050636 -5.314993 -27.253325
v -9.050636 2.205644 -27.253325
v -10.092179 -5.314993 -27.270113
v -10.092179 2.205644 -27.270113
v -9.101682 -5.314993 -24.086269
v -9.101682 2.205644 -24.086269
v -10.143226 -5.314993 -24.103056
v -10.143226 2.205644 -24.103056
vn -0.0161 0.0000 0.9999
vn -0.9999 0.0000 -0.0161
vn 0.0161 0.0000 -0.9999
vn 0.9999 0.0000 0.0161
vn 0.0000 -1.0000 0.0000
vn 0.0000 1.0000 -0.0000
s off
f 9//1 10//1 12//1 11//1
f 3//2 4//2 8//2 7//2
f 7//3 8//3 6//3 5//3
f 5//4 6//4 2//4 1//4
f 3//5 7//5 5//5 1//5
f 8//6 4//6 2//6 6//6
o Cube.034_Cube.045
v -27.724440 -4.916274 -24.213896
v -27.724440 -4.916274 -21.272642
v -27.724440 -3.874489 -24.213896
v -27.724440 -3.874489 -21.272642
v -23.726797 -4.916274 -24.213896
v -23.726797 -4.916274 -21.272642
v -23.726797 -3.874489 -24.213896
v -23.726797 -3.874489 -21.272642
vn -1.0000 0.0000 0.0000
vn 0.0000 1.0000 0.0000
vn 1.0000 0.0000 0.0000
vn 0.0000 -1.0000 0.0000
vn 0.0000 0.0000 -1.0000
vn 0.0000 0.0000 1.0000
s off
f 13//7 14//7 16//7 15//7
f 15//8 16//8 20//8 19//8
f 19//9 20//9 18//9 17//9
f 17//10 18//10 14//10 13//10
f 15//11 19//11 17//11 13//11
f 20//12 16//12 14//12 18//12
o Cube.033_Cube.044
v -27.201569 -3.967463 -21.034883
v -27.201569 0.127773 -21.034883
v -27.201569 -3.967463 -22.076670
v -27.201569 0.127773 -22.076670
v -23.663702 -3.967463 -21.034883
v -23.663702 0.127773 -21.034883
v -23.663702 -3.967463 -22.076670
v -23.663702 0.127773 -22.076670
vn -1.0000 0.0000 0.0000
vn 0.0000 0.0000 -1.0000
vn 1.0000 0.0000 0.0000
vn 0.0000 0.0000 1.0000
vn 0.0000 -1.0000 0.0000
vn 0.0000 1.0000 0.0000
s off
f 21//13 22//13 24//13 23//13
f 23//14 24//14 28//14 27//14
f 27//15 28//15 26//15 25//15
f 25//16 26//16 22//16 21//16
f 23//17 27//17 25//17 21//17
f 28//18 24//18 22//18 26//18
o Cube.032_Cube.043
v -27.201569 -3.967463 -23.965895
v -27.201569 0.127773 -23.965895
v -27.201569 -3.967463 -25.007681
v -27.201569 0.127773 -25.007681
v -23.663702 -3.967463 -23.965895
v -23.663702 0.127773 -23.965895
v -23.663702 -3.967463 -25.007681
v -23.663702 0.127773 -25.007681
vn -1.0000 0.0000 0.0000
vn 0.0000 0.0000 -1.0000
vn 1.0000 0.0000 0.0000
vn 0.0000 0.0000 1.0000
vn 0.0000 -1.0000 0.0000
vn 0.0000 1.0000 0.0000
s off
f 29//19 30//19 32//19 31//19
f 31//20 32//20 36//20 35//20
f 35//21 36//21 34//21 33//21
f 33//22 34//22 30//22 29//22
f 31//23 35//23 33//23 29//23
f 36//24 32//24 30//24 34//24
o Cube.031_Cube.042
v -28.027731 -4.955750 -17.117838
v -28.027731 1.116059 -17.117838
v -28.027731 -4.955750 -21.029165
v -28.027731 1.116059 -21.029165
v -26.988028 -4.955750 -17.117838
v -26.988028 1.116059 -17.117838
v -26.988028 -4.955750 -21.029165
v -26.988028 1.116059 -21.029165
vn -1.0000 0.0000 0.0000
vn 0.0000 0.0000 -1.0000
vn 1.0000 0.0000 0.0000
vn 0.0000 0.0000 1.0000
vn 0.0000 -1.0000 0.0000
vn 0.0000 1.0000 0.0000
s off
f 37//25 38//25 40//25 39//25
f 39//26 40//26 44//26 43//26
f 43//27 44//27 42//27 41//27
f 41//28 42//28 38//28 37//28
f 39//29 43//29 41//29 37//29
f 44//30 40//30 38//30 42//30
o Cube.016_Cube.041
v -28.027731 -4.955750 -25.440737
v -28.027731 1.116059 -25.440737
v -28.027731 -4.955750 -28.684645
v -28.027731 1.116059 -28.684645
v -26.988028 -4.955750 -25.440737
v -26.988028 1.116059 -25.440737
v -26.988028 -4.955750 -28.684645
v -26.988028 1.116059 -28.684645
vn -1.0000 0.0000 0.0000
vn 0.0000 0.0000 -1.0000
vn 1.0000 0.0000 0.0000
vn 0.0000 0.0000 1.0000
vn 0.0000 -1.0000 0.0000
vn 0.0000 1.0000 0.0000
s off
f 45//31 46//31 48//31 47//31
f 47//32 48//32 52//32 51//32
f 51//33 52//33 50//33 49//33
f 49//34 50//34 46//34 45//34
f 47//35 51//35 49//35 45//35
f 52//36 48//36 46//36 50//36
o Cube.015_Cube.040
v -44.753883 -5.384336 -28.722294
v -44.753883 -5.384336 -16.760490
v -44.753883 -4.116624 -28.722294
v -44.753883 -4.116625 -16.760490
v -27.236618 -5.384336 -28.722294
v -27.236618 -5.384336 -16.760490
v -27.236618 -4.116624 -28.722294
v -27.236618 -4.116625 -16.760490
vn -1.0000 0.0000 0.0000
vn 0.0000 1.0000 0.0000
vn 1.0000 0.0000 0.0000
vn 0.0000 -1.0000 -0.0000
vn 0.0000 0.0000 -1.0000
vn 0.0000 0.0000 1.0000
s off
f 53//37 54//37 56//37 55//37
f 55//38 56//38 60//38 59//38
f 59//39 60//39 58//39 57//39
f 57//40 58//40 54//40 53//40
f 55//41 59//41 57//41 53//41
f 60//42 56//42 54//42 58//42
o Cube.014_Cube.039
v -45.036797 -5.314997 -28.725231
v -45.036797 2.205641 -28.725231
v -45.036797 -5.314997 -29.767017
v -45.036797 2.205641 -29.767017
v -27.877190 -5.314997 -28.725231
v -27.877190 2.205641 -28.725231
v -27.877190 -5.314997 -29.767017
v -27.877190 2.205641 -29.767017
vn -1.0000 0.0000 0.0000
vn 0.0000 0.0000 -1.0000
vn 1.0000 0.0000 0.0000
vn 0.0000 0.0000 1.0000
vn 0.0000 -1.0000 0.0000
vn 0.0000 1.0000 0.0000
s off
f 61//43 62//43 64//43 63//43
f 63//44 64//44 68//44 67//44
f 67//45 68//45 66//45 65//45
f 65//46 66//46 62//46 61//46
f 63//47 67//47 65//47 61//47
f 68//48 64//48 62//48 66//48
o Cube.013_Cube.038
v -45.036797 -5.314997 -16.366301
v -45.036797 2.205641 -16.366301
v -45.036797 -5.314997 -17.408087
v -45.036797 2.205641 -17.408087
v -27.877190 -5.314997 -16.366301
v -27.877190 2.205641 -16.366301
v -27.877190 -5.314997 -17.408087
v -27.877190 2.205641 -17.408087
vn -1.0000 0.0000 0.0000
vn 0.0000 0.0000 -1.0000
vn 1.0000 0.0000 0.0000
vn 0.0000 0.0000 1.0000
vn 0.0000 -1.0000 0.0000
vn 0.0000 1.0000 0.0000
s off
f 69//49 70//49 72//49 71//49
f 71//50 72//50 76//50 75//50
f 75//51 76//51 74//51 73//51
f 73//52 74//52 70//52 69//52
f 71//53 75//53 73//53 69//53
f 76//54 72//54 70//54 74//54
o Cube.012_Cube.037
v -44.753883 1.143373 -28.722294
v -44.753883 1.143372 -16.760490
v -44.753883 2.411084 -28.722294
v -44.753883 2.411083 -16.760490
v -27.236618 1.143373 -28.722294
v -27.236618 1.143372 -16.760490
v -27.236618 2.411084 -28.722294
v -27.236618 2.411083 -16.760490
vn -1.0000 0.0000 0.0000
vn 0.0000 1.0000 0.0000
vn 1.0000 0.0000 0.0000
vn 0.0000 -1.0000 -0.0000
vn 0.0000 0.0000 -1.0000
vn 0.0000 0.0000 1.0000
s off
f 77//55 78//55 80//55 79//55
f 79//56 80//56 84//56 83//56
f 83//57 84//57 82//57 81//57
f 81//58 82//58 78//58 77//58
f 79//59 83//59 81//59 77//59
f 84//60 80//60 78//60 82//60
o Cube.011_Cube.036
v -23.661926 1.256336 -26.501711
v -23.661926 1.256336 -18.981073
v -23.661926 2.298120 -26.501711
v -23.661926 2.298120 -18.981073
v -14.953264 1.256336 -26.501711
v -14.953264 1.256336 -18.981073
v -14.953264 2.298120 -26.501711
v -14.953264 2.298120 -18.981073
vn -1.0000 0.0000 0.0000
vn 0.0000 1.0000 0.0000
vn 1.0000 0.0000 0.0000
vn 0.0000 -1.0000 -0.0000
vn 0.0000 0.0000 -1.0000
vn 0.0000 0.0000 1.0000
s off
f 85//61 86//61 88//61 87//61
f 87//62 88//62 92//62 91//62
f 91//63 92//63 90//63 89//63
f 89//64 90//64 86//64 85//64
f 87//65 91//65 89//65 85//65
f 92//66 88//66 86//66 90//66
o Cube.010_Cube.035
v -15.503932 -4.955750 -18.934610
v -15.503932 1.116059 -18.934610
v -15.503932 -4.955750 -20.540735
v -15.503932 1.116059 -20.540735
v -14.464230 -4.955750 -18.934610
v -14.464230 1.116059 -18.934610
v -14.464230 -4.955750 -20.540735
v -14.464230 1.116059 -20.540735
vn -1.0000 0.0000 0.0000
vn 0.0000 0.0000 -1.0000
vn 1.0000 0.0000 0.0000
vn 0.0000 0.0000 1.0000
vn 0.0000 -1.0000 0.0000
vn 0.0000 1.0000 0.0000
s off
f 93//67 94//67 96//67 95//67
f 95//68 96//68 100//68 99//68
f 99//69 100//69 98//69 97//69
f 97//70 98//70 94//70 93//70
f 95//71 99//71 97//71 93//71
f 100//72 96//72 94//72 98//72
o Cube.009_Cube.034
v -15.503932 -4.955750 -25.366676
v -15.503932 1.116059 -25.366676
v -15.503932 -4.955750 -26.408463
v -15.503932 1.116059 -26.408463
v -14.464230 -4.955750 -25.366676
v -14.464230 1.116059 -25.366676
v -14.464230 -4.955750 -26.408463
v -14.464230 1.116059 -26.408463
vn -1.0000 0.0000 0.0000
vn 0.0000 0.0000 -1.0000
vn 1.0000 0.0000 0.0000
vn 0.0000 0.0000 1.0000
vn 0.0000 -1.0000 0.0000
vn 0.0000 1.0000 0.0000
s off
f 101//73 102//73 104//73 103//73
f 103//74 104//74 108//74 107//74
f 107//75 108//75 106//75 105//75
f 105//76 106//76 102//76 101//76
f 103//77 107//77 105//77 101//77
f 108//78 104//78 102//78 106//78
o Cube.008_Cube.033
v -3.240485 -0.472958 -26.354279
v -3.240485 1.849235 -26.354279
v -3.240485 -0.472958 -27.396065
v -3.240485 1.849235 -27.396065
v 1.510142 -0.472958 -26.354279
v 1.510142 1.849235 -26.354279
v 1.510142 -0.472958 -27.396065
v 1.510142 1.849235 -27.396065
vn -1.0000 0.0000 0.0000
vn 0.0000 0.0000 -1.0000
vn 1.0000 0.0000 0.0000
vn 0.0000 0.0000 1.0000
vn 0.0000 -1.0000 0.0000
vn 0.0000 1.0000 0.0000
s off
f 109//79 110//79 112//79 111//79
f 111//80 112//80 116//80 115//80
f 115//81 116//81 114//81 113//81
f 113//82 114//82 110//82 109//82
f 111//83 115//83 113//83 109//83
f 116//84 112//84 110//84 114//84
o Cube.030_Cube.032
v -15.472841 -4.916274 -24.213896
v -15.472841 -4.916274 -21.272642
v -15.472841 -3.874489 -24.213896
v -15.472841 -3.874489 -21.272642
v -10.249098 -4.916274 -24.213896
v -10.249098 -4.916274 -21.272642
v -10.249098 -3.874489 -24.213896
v -10.249098 -3.874489 -21.272642
vn -1.0000 0.0000 0.0000
vn 0.0000 1.0000 0.0000
vn 1.0000 0.0000 0.0000
vn 0.0000 -1.0000 0.0000
vn 0.0000 0.0000 -1.0000
vn 0.0000 0.0000 1.0000
s off
f 117//85 118//85 120//85 119//85
f 119//86 120//86 124//86 123//86
f 123//87 124//87 122//87 121//87
f 121//88 122//88 118//88 117//88
f 119//89 123//89 121//89 117//89
f 124//90 120//90 118//90 122//90
o Cube.029_Cube.031
v -15.120605 -3.967463 -23.965895
v -15.120605 0.127773 -23.965895
v -15.120605 -3.967463 -25.007681
v -15.120605 0.127773 -25.007681
v -10.369978 -3.967463 -23.965895
v -10.369978 0.127773 -23.965895
v -10.369978 -3.967463 -25.007681
v -10.369978 0.127773 -25.007681
vn -1.0000 0.0000 0.0000
vn 0.0000 0.0000 -1.0000
vn 1.0000 0.0000 0.0000
vn 0.0000 0.0000 1.0000
vn 0.0000 -1.0000 0.0000
vn 0.0000 1.0000 0.0000
s off
f 125//91 126//91 128//91 127//91
f 127//92 128//92 132//92 131//92
f 131//93 132//93 130//93 129//93
f 129//94 130//94 126//94 125//94
f 127//95 131//95 129//95 125//95
f 132//96 128//96 126//96 130//96
o Cube.028_Cube.030
v -15.120605 -3.967463 -21.058382
v -15.120605 0.127773 -21.058382
v -15.120605 -3.967463 -22.100168
v -15.120605 0.127773 -22.100168
v -10.369978 -3.967463 -21.058382
v -10.369978 0.127773 -21.058382
v -10.369978 -3.967463 -22.100168
v -10.369978 0.127773 -22.100168
vn -1.0000 0.0000 0.0000
vn 0.0000 0.0000 -1.0000
vn 1.0000 0.0000 0.0000
vn 0.0000 0.0000 1.0000
vn 0.0000 -1.0000 0.0000
vn 0.0000 1.0000 0.0000
s off
f 133//97 134//97 136//97 135//97
f 135//98 136//98 140//98 139//98
f 139//99 140//99 138//99 137//99
f 137//100 138//100 134//100 133//100
f 135//101 139//101 137//101 133//101
f 140//102 136//102 134//102 138//102
o Cube.027_Cube.029
v -2.664515 -1.192520 -11.271635
v -2.664515 -1.192520 -9.360962
v -2.664515 -0.150736 -11.271635
v -2.664515 -0.150736 -9.360962
v 1.678288 -1.192520 -11.271635
v 1.678288 -1.192520 -9.360962
v 1.678288 -0.150736 -11.271635
v 1.678288 -0.150736 -9.360962
vn -1.0000 0.0000 0.0000
vn 0.0000 1.0000 0.0000
vn 1.0000 0.0000 0.0000
vn 0.0000 -1.0000 0.0000
vn 0.0000 0.0000 -1.0000
vn 0.0000 0.0000 1.0000
s off
f 141//103 142//103 144//103 143//103
f 143//104 144//104 148//104 147//104
f 147//105 148//105 146//105 145//105
f 145//106 146//106 142//106 141//106
f 143//107 147//107 145//107 141//107
f 148//108 144//108 142//108 146//108
o Cube.026_Cube.028
v -2.664515 -2.205983 -12.908737
v -2.664515 -2.205983 -10.998063
v -2.664515 -1.164198 -12.908737
v -2.664515 -1.164198 -10.998063
v 1.678288 -2.205983 -12.908737
v 1.678288 -2.205983 -10.998063
v 1.678288 -1.164198 -12.908737
v 1.678288 -1.164198 -10.998063
vn -1.0000 0.0000 0.0000
vn 0.0000 1.0000 0.0000
vn 1.0000 0.0000 0.0000
vn 0.0000 -1.0000 0.0000
vn 0.0000 0.0000 -1.0000
vn 0.0000 0.0000 1.0000
s off
f 149//109 150//109 152//109 151//109
f 151//110 152//110 156//110 155//110
f 155//111 156//111 154//111 153//111
f 153//112 154//112 150//112 149//112
f 151//113 155//113 153//113 149//113
f 156//114 152//114 150//114 154//114
o Cube.025_Cube.027
v -2.664515 -3.148057 -14.514801
v -2.664515 -3.148057 -12.988185
v -2.664515 -2.106272 -14.514801
v -2.664515 -2.106272 -12.988185
v 1.678288 -3.148057 -14.514801
v 1.678288 -3.148057 -12.988185
v 1.678288 -2.106272 -14.514801
v 1.678288 -2.106272 -12.988185
vn -1.0000 0.0000 0.0000
vn 0.0000 1.0000 0.0000
vn 1.0000 0.0000 0.0000
vn 0.0000 -1.0000 0.0000
vn 0.0000 0.0000 -1.0000
vn 0.0000 0.0000 1.0000
s off
f 157//115 158//115 160//115 159//115
f 159//116 160//116 164//116 163//116
f 163//117 164//117 162//117 161//117
f 161//118 162//118 158//118 157//118
f 159//119 163//119 161//119 157//119
f 164//120 160//120 158//120 162//120
o Cube.024_Cube.026
v -2.664515 -3.964422 -16.475769
v -2.664515 -3.964422 -14.434393
v -2.664515 -2.922638 -16.475769
v -2.664515 -2.922638 -14.434393
v 1.678288 -3.964422 -16.475769
v 1.678288 -3.964422 -14.434393
v 1.678288 -2.922638 -16.475769
v 1.678288 -2.922638 -14.434393
vn -1.0000 0.0000 0.0000
vn 0.0000 1.0000 0.0000
vn 1.0000 0.0000 0.0000
vn 0.0000 -1.0000 0.0000
vn 0.0000 0.0000 -1.0000
vn 0.0000 0.0000 1.0000
s off
f 165//121 166//121 168//121 167//121
f 167//122 168//122 172//122 171//122
f 171//123 172//123 170//123 169//123
f 169//124 170//124 166//124 165//124
f 167//125 171//125 169//125 165//125
f 172//126 168//126 166//126 170//126
o Cube.023_Cube.025
v -2.664515 -5.079412 -17.823294
v -2.664515 -5.079412 -16.296679
v -2.664515 -4.037628 -17.823294
v -2.664515 -4.037628 -16.296679
v 1.678288 -5.079412 -17.823294
v 1.678288 -5.079412 -16.296679
v 1.678288 -4.037628 -17.823294
v 1.678288 -4.037628 -16.296679
vn -1.0000 0.0000 0.0000
vn 0.0000 1.0000 0.0000
vn 1.0000 0.0000 0.0000
vn 0.0000 -1.0000 0.0000
vn 0.0000 0.0000 -1.0000
vn 0.0000 0.0000 1.0000
s off
f 173//127 174//127 176//127 175//127
f 175//128 176//128 180//128 179//128
f 179//129 180//129 178//129 177//129
f 177//130 178//130 174//130 173//130
f 175//131 179//131 177//131 173//131
f 180//132 176//132 174//132 178//132
o Cube.022_Cube.024
v -23.735706 -4.846724 -26.501711
v -23.735706 -4.846724 -18.981073
v -23.735706 -3.804939 -26.501711
v -23.735706 -3.804939 -18.981073
v -15.257069 -4.846724 -26.501711
v -15.257069 -4.846724 -18.981073
v -15.257069 -3.804939 -26.501711
v -15.257069 -3.804939 -18.981073
vn -1.0000 0.0000 0.0000
vn 0.0000 1.0000 0.0000
vn 1.0000 0.0000 0.0000
vn 0.0000 -1.0000 0.0000
vn 0.0000 0.0000 -1.0000
vn 0.0000 0.0000 1.0000
s off
f 181//133 182//133 184//133 183//133
f 183//134 184//134 188//134 187//134
f 187//135 188//135 186//135 185//135
f 185//136 186//136 182//136 181//136
f 183//137 187//137 185//137 181//137
f 188//138 184//138 182//138 186//138
o Cube.021_Cube.023
v -2.687288 5.110240 -18.986698
v -2.687288 5.110239 -8.777822
v -2.687288 6.152024 -18.986698
v -2.687288 6.152024 -8.777822
v 1.655514 5.110240 -18.986698
v 1.655514 5.110239 -8.777822
v 1.655514 6.152024 -18.986698
v 1.655514 6.152024 -8.777822
vn -1.0000 0.0000 0.0000
vn 0.0000 1.0000 0.0000
vn 1.0000 0.0000 0.0000
vn 0.0000 -1.0000 -0.0000
vn 0.0000 0.0000 -1.0000
vn 0.0000 0.0000 1.0000
s off
f 189//139 190//139 192//139 191//139
f 191//140 192//140 196//140 195//140
f 195//141 196//141 194//141 193//141
f 193//142 194//142 190//142 189//142
f 191//143 195//143 193//143 189//143
f 196//144 192//144 190//144 194//144
o Cube.020_Cube.022
v -23.314941 -5.314997 -18.629696
v -23.314941 2.205641 -18.629696
v -23.314941 -5.314997 -19.671482
v -23.314941 2.205641 -19.671482
v -15.336494 -5.314997 -18.629696
v -15.336494 2.205641 -18.629696
v -15.336494 -5.314997 -19.671482
v -15.336494 2.205641 -19.671482
vn -1.0000 0.0000 0.0000
vn 0.0000 0.0000 -1.0000
vn 1.0000 0.0000 0.0000
vn 0.0000 0.0000 1.0000
vn 0.0000 -1.0000 0.0000
vn 0.0000 1.0000 0.0000
s off
f 197//145 198//145 200//145 199//145
f 199//146 200//146 204//146 203//146
f 203//147 204//147 202//147 201//147
f 201//148 202//148 198//148 197//148
f 199//149 203//149 201//149 197//149
f 204//150 200//150 198//150 202//150
o Cube.019_Cube.021
v -23.314941 -5.314997 -25.803623
v -23.314941 2.205641 -25.803623
v -23.314941 -5.314997 -26.845409
v -23.314941 2.205641 -26.845409
v -15.336494 -5.314997 -25.803623
v -15.336494 2.205641 -25.803623
v -15.336494 -5.314997 -26.845409
v -15.336494 2.205641 -26.845409
vn -1.0000 0.0000 0.0000
vn 0.0000 0.0000 -1.0000
vn 1.0000 0.0000 0.0000
vn 0.0000 0.0000 1.0000
vn 0.0000 -1.0000 0.0000
vn 0.0000 1.0000 0.0000
s off
f 205//151 206//151 208//151 207//151
f 207//152 208//152 212//152 211//152
f 211//153 212//153 210//153 209//153
f 209//154 210//154 206//154 205//154
f 207//155 211//155 209//155 205//155
f 212//156 208//156 206//156 210//156
o Cube.018_Cube.020
v -10.442410 -5.812894 -26.456364
v -10.442410 -5.812894 -18.935726
v -10.442410 -4.771110 -26.456364
v -10.442410 -4.771110 -18.935726
v 8.399796 -5.812894 -26.456364
v 8.399796 -5.812894 -18.935726
v 8.399796 -4.771110 -26.456364
v 8.399796 -4.771110 -18.935726
vn -1.0000 0.0000 0.0000
vn 0.0000 1.0000 0.0000
vn 1.0000 0.0000 0.0000
vn 0.0000 -1.0000 0.0000
vn 0.0000 0.0000 -1.0000
vn 0.0000 0.0000 1.0000
s off
f 213//157 214//157 216//157 215//157
f 215//158 216//158 220//158 219//158
f 219//159 220//159 218//159 217//159
f 217//160 218//160 214//160 213//160
f 215//161 219//161 217//161 213//161
f 220//162 216//162 214//162 218//162
o Cube.017_Cube.019
v -9.101682 -5.314993 -18.264553
v -9.101682 2.205644 -18.264553
v -10.143226 -5.314993 -18.281340
v -10.143226 2.205644 -18.281340
v -9.050636 -5.314993 -21.431608
v -9.050636 2.205644 -21.431608
v -10.092179 -5.314993 -21.448397
v -10.092179 2.205644 -21.448397
v -9.101682 -5.314993 -18.264553
v -9.101682 2.205644 -18.264553
v -10.143226 -5.314993 -18.281340
v -10.143226 2.205644 -18.281340
vn -0.0161 0.0000 0.9999
vn -0.9999 0.0000 -0.0161
vn 0.0161 0.0000 -0.9999
vn 0.9999 0.0000 0.0161
vn 0.0000 -1.0000 0.0000
vn 0.0000 1.0000 -0.0000
s off
f 229//163 230//163 232//163 231//163
f 223//164 224//164 228//164 227//164
f 227//165 228//165 226//165 225//165
f 225//166 226//166 222//166 221//166
f 223//167 227//167 225//167 221//167
f 228//168 224//168 222//168 226//168
o Cube.007_Cube.009
v -10.442410 1.256336 -26.501711
v -10.442410 1.256336 -18.981073
v -10.442410 2.298120 -26.501711
v -10.442410 2.298120 -18.981073
v 8.399796 1.256336 -26.501711
v 8.399796 1.256336 -18.981073
v 8.399796 2.298120 -26.501711
v 8.399796 2.298120 -18.981073
vn -1.0000 0.0000 0.0000
vn 0.0000 1.0000 0.0000
vn 1.0000 0.0000 0.0000
vn 0.0000 -1.0000 -0.0000
vn 0.0000 0.0000 -1.0000
vn 0.0000 0.0000 1.0000
s off
f 233//169 234//169 236//169 235//169
f 235//170 236//170 240//170 239//170
f 239//171 240//171 238//171 237//171
f 237//172 238//172 234//172 233//172
f 235//173 239//173 237//173 233//173
f 240//174 236//174 234//174 238//174
o Cube.006_Cube.008
v -2.085145 -5.098657 -8.193705
v -2.085145 6.121220 -8.193705
v -3.126794 -5.098657 -8.210493
v -3.126794 6.121220 -8.210493
v -1.965334 -5.098657 -17.737570
v -1.965334 6.121220 -17.737570
v -3.006984 -5.098657 -17.754358
v -3.006984 6.121220 -17.754358
vn -0.0161 0.0000 0.9999
vn -0.9999 0.0000 -0.0126
vn 0.0161 0.0000 -0.9999
vn 0.9999 0.0000 0.0126
vn 0.0000 -1.0000 0.0000
vn 0.0000 1.0000 0.0000
s off
f 241//175 242//175 244//175 243//175
f 243//176 244//176 248//176 247//176
f 247//177 248//177 246//177 245//177
f 245//178 246//178 242//178 241//178
f 243//179 247//179 245//179 241//179
f 248//180 244//180 242//180 246//180
o Cube.005_Cube.007
v 2.196939 -5.406926 -8.193705
v 2.196939 6.154464 -8.193705
v 1.155290 -5.406926 -8.210493
v 1.155290 6.154464 -8.210493
v 2.316750 -5.406926 -17.737570
v 2.316750 6.154464 -17.737570
v 1.275100 -5.406926 -17.754358
v 1.275100 6.154464 -17.754358
vn -0.0161 0.0000 0.9999
vn -0.9999 0.0000 -0.0126
vn 0.0161 0.0000 -0.9999
vn 0.9999 0.0000 0.0126
vn 0.0000 -1.0000 -0.0000
vn 0.0000 1.0000 0.0000
s off
f 249//181 250//181 252//181 251//181
f 251//182 252//182 256//182 255//182
f 255//183 256//183 254//183 253//183
f 253//184 254//184 250//184 249//184
f 251//185 255//185 253//185 249//185
f 256//186 252//186 250//186 254//186
o Cube.004_Cube.006
v 9.330609 -5.314993 -17.960417
v 9.330609 2.205644 -17.960417
v 8.288890 -5.314993 -17.977207
v 8.288890 2.205644 -17.977207
v 9.478036 -5.314993 -27.107250
v 9.478036 2.205644 -27.107250
v 8.436317 -5.314993 -27.124039
v 8.436317 2.205644 -27.124039
vn -0.0161 0.0000 0.9999
vn -0.9999 0.0000 -0.0161
vn 0.0161 0.0000 -0.9999
vn 0.9999 0.0000 0.0161
vn 0.0000 -1.0000 0.0000
vn 0.0000 1.0000 0.0000
s off
f 257//187 258//187 260//187 259//187
f 259//188 260//188 264//188 263//188
f 263//189 264//189 262//189 261//189
f 261//190 262//190 258//190 257//190
f 259//191 263//191 261//191 257//191
f 264//192 260//192 258//192 262//192
o Cube.002_Cube.005
v 1.000313 -5.314997 -26.285433
v 1.000313 2.205641 -26.285433
v 1.000313 -5.314997 -27.327219
v 1.000313 2.205641 -27.327219
v 8.434657 -5.314997 -26.285433
v 8.434657 2.205641 -26.285433
v 8.434657 -5.314997 -27.327219
v 8.434657 2.205641 -27.327219
vn -1.0000 0.0000 0.0000
vn 0.0000 0.0000 -1.0000
vn 1.0000 0.0000 0.0000
vn 0.0000 0.0000 1.0000
vn 0.0000 -1.0000 0.0000
vn 0.0000 1.0000 0.0000
s off
f 265//193 266//193 268//193 267//193
f 267//194 268//194 272//194 271//194
f 271//195 272//195 270//195 269//195
f 269//196 270//196 266//196 265//196
f 267//197 271//197 269//197 265//197
f 272//198 268//198 266//198 270//198
o Cube.003_Cube.004
v -10.442410 -5.314997 -26.285433
v -10.442410 2.205641 -26.285433
v -10.442410 -5.314997 -27.327219
v -10.442410 2.205641 -27.327219
v -3.008065 -5.314997 -26.285433
v -3.008065 2.205641 -26.285433
v -3.008065 -5.314997 -27.327219
v -3.008065 2.205641 -27.327219
vn -1.0000 0.0000 0.0000
vn 0.0000 0.0000 -1.0000
vn 1.0000 0.0000 0.0000
vn 0.0000 0.0000 1.0000
vn 0.0000 -1.0000 0.0000
vn 0.0000 1.0000 0.0000
s off
f 273//199 274//199 276//199 275//199
f 275//200 276//200 280//200 279//200
f 279//201 280//201 278//201 277//201
f 277//202 278//202 274//202 273//202
f 275//203 279//203 277//203 273//203
f 280//204 276//204 274//204 278//204
o Cube.001_Cube.002
v 1.619998 -5.314997 -17.782749
v 1.619998 2.205641 -17.782749
v 1.619998 -5.314997 -18.824535
v 1.619998 2.205641 -18.824535
v 9.054341 -5.314997 -17.782749
v 9.054341 2.205641 -17.782749
v 9.054341 -5.314997 -18.824535
v 9.054341 2.205641 -18.824535
vn -1.0000 0.0000 0.0000
vn 0.0000 0.0000 -1.0000
vn 1.0000 0.0000 0.0000
vn 0.0000 0.0000 1.0000
vn 0.0000 -1.0000 0.0000
vn 0.0000 1.0000 0.0000
s off
f 281//205 282//205 284//205 283//205
f 283//206 284//206 288//206 287//206
f 287//207 288//207 286//207 285//207
f 285//208 286//208 282//208 281//208
f 283//209 287//209 285//209 281//209
f 288//210 284//210 282//210 286//210
o Cube_Cube.001
v -9.849281 -5.314997 -17.782749
v -9.849281 2.205641 -17.782749
v -9.849281 -5.314997 -18.824535
v -9.849281 2.205641 -18.824535
v -2.414938 -5.314997 -17.782749
v -2.414938 2.205641 -17.782749
v -2.414938 -5.314997 -18.824535
v -2.414938 2.205641 -18.824535
vn -1.0000 0.0000 0.0000
vn 0.0000 0.0000 -1.0000
vn 1.0000 0.0000 0.0000
vn 0.0000 0.0000 1.0000
vn 0.0000 -1.0000 0.0000
vn 0.0000 1.0000 0.0000
s off
f 289//211 290//211 292//211 291//211
f 291//212 292//212 296//212 295//212
f 295//213 296//213 294//213 293//213
f 293//214 294//214 290//214 289//214
f 291//215 295//215 293//215 289//215
f 296//216 292//216 290//216 294//216
