# Blender v2.79 (sub 0) OBJ File: 'TORREMOBA2.79.blend'
# www.blender.org
mtllib castle_tower.mtl
o pCylinder1_Untitled
v 0.247240 0.000433 -0.102410
v 0.189229 0.000433 -0.189229
v 0.102410 0.000433 -0.247240
v 0.000000 0.000433 -0.267611
v -0.102410 0.000433 -0.247240
v -0.189229 0.000433 -0.189230
v -0.247240 0.000433 -0.102410
v -0.267611 0.000433 -0.000000
v -0.247240 0.000433 0.102410
v -0.189229 0.000433 0.189229
v -0.102410 0.000433 0.247240
v -0.000000 0.000433 0.267610
v 0.102410 0.000433 0.247240
v 0.189229 0.000433 0.189229
v 0.247240 0.000433 0.102410
v 0.267611 0.000433 -0.000000
v 0.247240 0.846974 -0.102410
v 0.189229 0.846974 -0.189229
v 0.102410 0.846974 -0.247240
v 0.000000 0.846974 -0.267611
v -0.102410 0.846974 -0.247240
v -0.189229 0.846974 -0.189230
v -0.247240 0.846974 -0.102410
v -0.267611 0.846974 -0.000000
v -0.247240 0.846974 0.102410
v -0.189229 0.846974 0.189229
v -0.102410 0.846974 0.247240
v -0.000000 0.846974 0.267610
v 0.102410 0.846974 0.247240
v 0.189229 0.846974 0.189229
v 0.247240 0.846974 0.102410
v 0.267611 0.846974 -0.000000
v 0.294651 0.846974 -0.122049
v 0.225517 0.846974 -0.225516
v 0.122049 0.846974 -0.294651
v 0.000000 0.846974 -0.318928
v -0.122048 0.846974 -0.294652
v -0.225516 0.846974 -0.225517
v -0.294651 0.846974 -0.122049
v -0.318928 0.846974 -0.000000
v -0.294651 0.846974 0.122048
v -0.225516 0.846974 0.225516
v -0.122049 0.846974 0.294651
v -0.000000 0.846974 0.318928
v 0.122049 0.846974 0.294651
v 0.225516 0.846974 0.225516
v 0.294651 0.846974 0.122048
v 0.318928 0.846974 -0.000000
v 0.294651 0.982447 -0.122049
v 0.225517 0.982447 -0.225516
v 0.122049 0.982447 -0.294651
v 0.000000 0.982447 -0.318928
v -0.122048 0.982447 -0.294652
v -0.225516 0.982447 -0.225517
v -0.294651 0.982447 -0.122049
v -0.318928 0.982447 -0.000000
v -0.294651 0.982447 0.122048
v -0.225516 0.982447 0.225516
v -0.122049 0.982447 0.294651
v -0.000000 0.982447 0.318928
v 0.122049 0.982447 0.294651
v 0.225516 0.982447 0.225516
v 0.294651 0.982447 0.122048
v 0.318928 0.982447 -0.000000
v 0.215202 0.982447 -0.089140
v 0.164709 0.982447 -0.164709
v 0.089140 0.982447 -0.215202
v 0.000000 0.982447 -0.232933
v -0.089140 0.982447 -0.215202
v -0.164709 0.982447 -0.164709
v -0.215202 0.982447 -0.089140
v -0.232933 0.982447 -0.000000
v -0.215202 0.982447 0.089140
v -0.164709 0.982447 0.164709
v -0.089140 0.982447 0.215202
v -0.000000 0.982447 0.232933
v 0.089140 0.982447 0.215202
v 0.164709 0.982447 0.164709
v 0.215202 0.982447 0.089140
v 0.232933 0.982447 -0.000000
v 0.215202 0.809684 -0.089140
v 0.164709 0.809684 -0.164709
v 0.000000 0.809684 -0.000000
v 0.089140 0.809684 -0.215202
v 0.000000 0.809684 -0.232933
v -0.089140 0.809684 -0.215202
v -0.164709 0.809684 -0.164709
v -0.215202 0.809684 -0.089140
v -0.232933 0.809684 -0.000000
v -0.215202 0.809684 0.089140
v -0.164709 0.809684 0.164708
v -0.089140 0.809684 0.215202
v -0.000000 0.809684 0.232933
v 0.089140 0.809684 0.215202
v 0.164709 0.809684 0.164709
v 0.215202 0.809684 0.089140
v 0.232933 0.809684 -0.000000
v 0.225517 1.041860 -0.225516
v 0.122049 1.041860 -0.294651
v 0.089140 1.041860 -0.215202
v 0.164709 1.041860 -0.164709
v 0.000000 1.041860 -0.318928
v -0.122048 1.041860 -0.294652
v -0.089140 1.041860 -0.215202
v 0.000000 1.041860 -0.232933
v -0.225516 1.041860 -0.225516
v -0.294651 1.041860 -0.122049
v -0.215202 1.041860 -0.089140
v -0.164709 1.041860 -0.164709
v -0.318928 1.041860 -0.000000
v -0.294651 1.041860 0.122048
v -0.215202 1.041860 0.089140
v -0.232933 1.041860 -0.000000
v -0.225516 1.041860 0.225516
v -0.122049 1.041860 0.294651
v -0.089140 1.041860 0.215202
v -0.164709 1.041860 0.164709
v -0.000000 1.041860 0.318928
v 0.122049 1.041860 0.294651
v 0.089140 1.041860 0.215202
v -0.000000 1.041860 0.232933
v 0.225516 1.041860 0.225517
v 0.294651 1.041860 0.122048
v 0.215202 1.041860 0.089140
v 0.164709 1.041860 0.164709
v 0.318928 1.041860 -0.000000
v 0.294651 1.041860 -0.122049
v 0.215202 1.041860 -0.089140
v 0.232933 1.041860 -0.000000
vt 4.023656 -0.310560
vt 3.829733 1.007194
vt 3.829733 -0.310560
vt 4.217580 -0.310560
vt 4.023656 1.007194
vt 4.411504 -0.310560
vt 4.217580 1.007194
vt 1.502651 -0.310560
vt 1.308728 1.007194
vt 1.308728 -0.310560
vt 1.696574 -0.310560
vt 1.502651 1.007194
vt 1.890498 -0.310560
vt 1.696574 1.007194
vt 2.084421 -0.310560
vt 1.890498 1.007194
vt 2.278345 -0.310560
vt 2.084421 1.007194
vt 2.472269 -0.310560
vt 2.278345 1.007194
vt 2.666192 -0.310560
vt 2.472269 1.007194
vt 2.860116 -0.310560
vt 2.666192 1.007194
vt 3.054039 -0.310560
vt 2.860116 1.007194
vt 3.247962 -0.310560
vt 3.054039 1.007194
vt 3.441886 -0.310560
vt 3.247962 1.007194
vt 3.635810 -0.310560
vt 3.441886 1.007194
vt 3.635810 1.007194
vt 0.644356 0.903544
vt 0.610485 0.954235
vt 0.500000 0.837500
vt 0.559794 0.988106
vt 0.500000 1.000000
vt 0.440206 0.988106
vt 0.389515 0.954235
vt 0.355644 0.903544
vt 0.343750 0.843750
vt 0.355644 0.783956
vt 0.389515 0.733265
vt 0.440206 0.699394
vt 0.500000 0.687500
vt 0.559794 0.699394
vt 0.610485 0.733265
vt 0.644356 0.783956
vt 0.656250 0.843750
vt 0.795482 1.609972
vt 0.960099 1.714875
vt 0.886067 1.745540
vt 0.659914 1.519388
vt 0.852144 1.553309
vt 0.500000 1.407446
vt 0.690580 1.445354
vt 0.500000 1.487579
vt 0.309421 1.445354
vt 0.204517 1.609971
vt 0.340086 1.519388
vt 0.113934 1.745540
vt 0.147855 1.553309
vt 0.082124 1.905453
vt 0.039901 1.714875
vt 0.039901 2.096033
vt 0.001992 1.905453
vt 0.113934 2.065368
vt 0.147855 2.257599
vt 0.204517 2.200936
vt 0.309421 2.365553
vt 0.340086 2.291520
vt 0.500000 2.403462
vt 0.659914 2.291521
vt 0.500000 2.323329
vt 0.852144 2.257599
vt 0.690580 2.365553
vt 0.886067 2.065368
vt 0.795482 2.200936
vt 0.917875 1.905453
vt 0.960099 2.096033
vt 0.998007 1.905453
vt 4.023657 1.007194
vt 3.829733 1.218076
vt 3.829733 1.007194
vt 4.217580 1.007194
vt 4.023657 1.218076
vt 4.411504 1.007194
vt 4.217580 1.218076
vt 1.502651 1.007194
vt 1.308727 1.218076
vt 1.308727 1.007194
vt 1.696574 1.007194
vt 1.502651 1.218076
vt 1.890498 1.007194
vt 1.696574 1.218076
vt 2.084421 1.007194
vt 1.890498 1.218076
vt 2.278345 1.007194
vt 2.084421 1.218076
vt 2.472269 1.007194
vt 2.278345 1.218076
vt 2.666192 1.007194
vt 2.472269 1.218076
vt 2.860116 1.007194
vt 2.666192 1.218076
vt 3.054039 1.007194
vt 2.860116 1.218076
vt 3.247963 1.007194
vt 3.054039 1.218076
vt 3.441887 1.007194
vt 3.247963 1.218076
vt 3.635810 1.007194
vt 3.441887 1.218076
vt 3.635810 1.218076
vt 0.101925 0.226204
vt 0.084969 0.001992
vt 0.215588 0.056096
vt 0.435685 0.172098
vt 0.222050 0.101963
vt 0.322021 0.001992
vt 0.172487 0.658905
vt 0.001954 0.512354
vt 0.132575 0.458248
vt 0.350514 0.458248
vt 0.179982 0.604799
vt 0.209134 0.458248
vt 0.541926 0.226204
vt 0.524969 0.001992
vt 0.655590 0.056096
vt 0.775522 0.226204
vt 0.792479 0.001992
vt 0.875494 0.126233
vt 0.357817 0.458248
vt 0.528350 0.604799
vt 0.397730 0.658903
vt 0.575566 0.458248
vt 0.677035 0.658903
vt 0.535653 0.658903
vt 0.765560 0.400228
vt 0.979194 0.330091
vt 0.896179 0.454332
vt 0.659569 0.454332
vt 0.676525 0.230120
vt 0.759540 0.354361
vt 0.753403 0.658903
vt 0.854872 0.458248
vt 0.884021 0.604799
vt 0.848574 0.662819
vt 0.950045 0.863476
vt 0.808663 0.863476
vt 0.439916 0.230120
vt 0.456873 0.454332
vt 0.326252 0.400226
vt 0.320234 0.400228
vt 0.106599 0.330091
vt 0.206571 0.230120
vt 0.762730 0.662819
vt 0.661262 0.863474
vt 0.632111 0.716923
vt 0.626092 0.662819
vt 0.455559 0.809370
vt 0.484711 0.662819
vt 4.023657 1.218076
vt 3.829734 0.949146
vt 3.829733 1.218076
vt 4.217580 0.949146
vt 4.023657 0.949146
vt 4.217580 1.218076
vt 4.411504 0.949146
vt 1.502651 1.218076
vt 1.308727 0.949146
vt 1.308727 1.218076
vt 1.696575 1.218076
vt 1.502651 0.949146
vt 1.890497 0.949146
vt 1.696575 0.949146
vt 1.890498 1.218076
vt 2.084421 0.949146
vt 2.278345 1.218076
vt 2.084421 1.218076
vt 2.472268 0.949146
vt 2.278345 0.949146
vt 2.472269 1.218076
vt 2.666192 0.949146
vt 2.860116 1.218076
vt 2.666192 1.218076
vt 3.054039 0.949146
vt 2.860116 0.949146
vt 3.247963 1.218076
vt 3.054039 1.218076
vt 3.441886 0.949146
vt 3.247963 0.949146
vt 3.441886 1.218076
vt 3.635810 0.949146
vt 3.635810 1.218076
vt 4.023657 1.310560
vt 0.067801 0.662821
vt 0.139334 0.793440
vt 0.067801 0.793440
vt 4.217580 1.310560
vt 0.550951 0.867390
vt 0.622483 0.967361
vt 0.550951 0.967361
vt 1.308727 1.310560
vt 0.001954 0.797356
vt 0.073487 0.927975
vt 0.001954 0.927975
vt 1.502651 1.310560
vt 0.378009 0.662819
vt 0.449542 0.804199
vt 0.378009 0.804199
vt 1.696574 1.310560
vt 0.080547 0.808118
vt 0.152079 0.938737
vt 0.080547 0.938737
vt 1.890498 1.310560
vt 0.629352 0.867390
vt 0.700884 0.967361
vt 0.629352 0.967361
vt 2.084421 1.310560
vt 0.158948 0.938737
vt 0.230480 0.808118
vt 0.230480 0.938737
vt 2.084422 1.310560
vt 2.278345 1.310560
vt 0.371989 0.804199
vt 0.300457 0.662821
vt 0.371989 0.662821
vt 2.666192 1.310560
vt 2.472269 1.310560
vt 0.237349 0.808117
vt 0.308881 0.938735
vt 0.237349 0.938735
vt 2.666192 1.310560
vt 0.707753 0.967362
vt 0.779285 0.867391
vt 0.779285 0.967362
vt 2.860116 1.310560
vt 0.315748 0.808117
vt 0.387281 0.938737
vt 0.315748 0.938737
vt 3.054039 1.310560
vt 0.222904 0.662819
vt 0.294436 0.804201
vt 0.222904 0.804201
vt 3.247963 1.310560
vt 0.465681 0.998010
vt 0.394149 0.867394
vt 0.465681 0.867394
vt 3.441886 1.310560
vt 0.786153 0.867392
vt 0.857685 0.967363
vt 0.786153 0.967363
vt 3.635810 1.310560
vt 0.544082 0.867394
vt 0.472550 0.998010
vt 0.472550 0.867394
vt 3.635810 1.310560
vt 3.829734 1.310560
vt 0.145353 0.662821
vt 0.216885 0.804202
vt 0.145353 0.804202
vt 4.411504 1.007194
vt 4.411504 1.218076
vt 0.001954 0.126233
vt 0.305064 0.226204
vt 0.031106 0.658905
vt 0.310602 0.658903
vt 0.441955 0.126233
vt 0.661859 0.056096
vt 0.499199 0.458248
vt 0.706186 0.512352
vt 0.879222 0.230120
vt 0.545907 0.284224
vt 0.713489 0.458248
vt 0.979195 0.716925
vt 0.539887 0.330093
vt 0.189614 0.454332
vt 0.802643 0.863474
vt 0.586179 0.863474
vt 4.411504 1.218076
vt 4.217580 1.310560
vt 0.139334 0.662821
vt 4.023657 1.310560
vt 0.622483 0.867390
vt 1.502651 1.310560
vt 0.073487 0.797356
vt 1.308727 1.310560
vt 0.449542 0.662819
vt 1.890498 1.310560
vt 0.152079 0.808118
vt 1.696575 1.310560
vt 0.700884 0.867390
vt 2.278345 1.310560
vt 0.158948 0.808118
vt 0.300457 0.804199
vt 0.308881 0.808117
vt 2.472268 1.310560
vt 0.707753 0.867390
vt 3.054039 1.310560
vt 0.387281 0.808117
vt 2.860116 1.310560
vt 0.294436 0.662819
vt 3.441887 1.310560
vt 0.394149 0.998010
vt 3.247963 1.310560
vt 0.857685 0.867392
vt 3.829733 1.310560
vt 0.544082 0.998010
vt 0.216885 0.662821
vn 0.7071 0.0000 -0.7071
vn 0.9239 0.0000 -0.3827
vn 0.3827 0.0000 -0.9239
vn 0.0000 0.0000 -1.0000
vn -0.3827 0.0000 -0.9239
vn -0.7071 0.0000 -0.7071
vn -0.9239 0.0000 -0.3827
vn -1.0000 0.0000 -0.0000
vn -0.9239 -0.0000 0.3827
vn -0.7071 -0.0000 0.7071
vn -0.3827 -0.0000 0.9239
vn -0.0000 -0.0000 1.0000
vn 0.3827 -0.0000 0.9239
vn 0.7071 -0.0000 0.7071
vn 0.9239 -0.0000 0.3827
vn 1.0000 0.0000 -0.0000
vn 0.0000 1.0000 0.0000
vn -0.0000 -1.0000 0.0000
vn 0.9369 -0.0000 -0.3497
vn 0.6814 0.0000 -0.7320
vn 0.4152 0.0000 -0.9097
vn -0.0358 0.0000 -0.9994
vn -0.3497 0.0000 -0.9369
vn -0.7320 0.0000 -0.6814
vn -0.9097 -0.0000 -0.4152
vn -0.9994 -0.0000 0.0358
vn -0.9369 -0.0000 0.3497
vn -0.6814 0.0000 0.7319
vn -0.4152 -0.0000 0.9097
vn 0.0358 -0.0000 0.9994
vn 0.3497 -0.0000 0.9369
vn 0.7320 -0.0000 0.6814
vn 0.9097 -0.0000 0.4152
vn 0.9994 -0.0000 -0.0358
vn -0.6862 0.0000 0.7274
vn -0.9346 0.0000 0.3557
vn -0.4096 0.0000 0.9123
vn 0.3557 0.0000 0.9346
vn 0.0292 0.0000 0.9996
vn 0.7274 0.0000 0.6862
vn 0.9123 -0.0000 0.4096
vn 0.9346 0.0000 -0.3556
vn 0.9996 0.0000 -0.0292
vn 0.6863 0.0000 -0.7274
vn -0.0292 0.0000 -0.9996
vn 0.4095 0.0000 -0.9123
vn -0.7274 0.0000 -0.6862
vn -0.3556 0.0000 -0.9346
vn -0.9123 -0.0000 -0.4096
vn -0.9996 0.0000 0.0292
vn 0.5556 0.0000 -0.8315
vn -0.5556 -0.0000 0.8315
vn -0.1951 0.0000 -0.9808
vn 0.1951 -0.0000 0.9808
vn -0.8315 0.0000 -0.5556
vn 0.8315 -0.0000 0.5556
vn -0.9808 -0.0000 0.1951
vn 0.9808 0.0000 -0.1951
usemtl lambert2
s 1
f 2/1/1 17/2/2 1/3/2
f 3/4/3 18/5/1 2/1/1
f 4/6/4 19/7/3 3/4/3
f 5/8/5 20/9/4 4/10/4
f 6/11/6 21/12/5 5/8/5
f 7/13/7 22/14/6 6/11/6
f 8/15/8 23/16/7 7/13/7
f 9/17/9 24/18/8 8/15/8
f 10/19/10 25/20/9 9/17/9
f 11/21/11 26/22/10 10/19/10
f 12/23/12 27/24/11 11/21/11
f 13/25/13 28/26/12 12/23/12
f 14/27/14 29/28/13 13/25/13
f 15/29/15 30/30/14 14/27/14
f 16/31/16 31/32/15 15/29/15
f 1/3/2 32/33/16 16/31/16
f 81/34/17 82/35/17 83/36/17
f 82/35/17 84/37/17 83/36/17
f 84/37/17 85/38/17 83/36/17
f 85/38/17 86/39/17 83/36/17
f 86/39/17 87/40/17 83/36/17
f 87/40/17 88/41/17 83/36/17
f 88/41/17 89/42/17 83/36/17
f 89/42/17 90/43/17 83/36/17
f 90/43/17 91/44/17 83/36/17
f 91/44/17 92/45/17 83/36/17
f 92/45/17 93/46/17 83/36/17
f 93/46/17 94/47/17 83/36/17
f 94/47/17 95/48/17 83/36/17
f 95/48/17 96/49/17 83/36/17
f 96/49/17 97/50/17 83/36/17
f 97/50/17 81/34/17 83/36/17
f 18/51/18 33/52/18 17/53/18
f 19/54/18 34/55/18 18/51/18
f 19/54/18 36/56/18 35/57/18
f 20/58/18 37/59/18 36/56/18
f 22/60/18 37/59/18 21/61/18
f 23/62/18 38/63/18 22/60/18
f 24/64/18 39/65/18 23/62/18
f 24/64/18 41/66/18 40/67/18
f 25/68/18 42/69/18 41/66/18
f 26/70/18 43/71/18 42/69/18
f 27/72/18 44/73/18 43/71/18
f 29/74/18 44/73/18 28/75/18
f 29/74/18 46/76/18 45/77/18
f 31/78/18 46/76/18 30/79/18
f 32/80/18 47/81/18 31/78/18
f 17/53/18 48/82/18 32/80/18
f 34/83/1 49/84/19 33/85/2
f 35/86/3 50/87/20 34/83/1
f 36/88/4 51/89/21 35/86/3
f 37/90/5 52/91/22 36/92/4
f 38/93/6 53/94/23 37/90/5
f 39/95/7 54/96/24 38/93/6
f 40/97/8 55/98/25 39/95/7
f 41/99/9 56/100/26 40/97/8
f 42/101/10 57/102/27 41/99/9
f 43/103/11 58/104/28 42/101/10
f 44/105/12 59/106/29 43/103/11
f 45/107/13 60/108/30 44/105/12
f 46/109/14 61/110/31 45/107/13
f 47/111/15 62/112/32 46/109/14
f 48/113/16 63/114/33 47/111/15
f 33/85/2 64/115/34 48/113/16
f 50/116/17 65/117/17 49/118/17
f 99/119/17 101/120/17 98/121/17
f 52/122/17 67/123/17 51/124/17
f 102/125/17 104/126/17 105/127/17
f 54/128/17 69/129/17 53/130/17
f 106/131/17 108/132/17 109/133/17
f 56/134/17 71/135/17 55/136/17
f 111/137/17 113/138/17 110/139/17
f 57/140/17 74/141/17 73/142/17
f 114/143/17 116/144/17 117/145/17
f 59/146/17 76/147/17 75/148/17
f 119/149/17 121/150/17 118/151/17
f 62/152/17 77/153/17 61/154/17
f 123/155/17 125/156/17 122/157/17
f 63/158/17 80/159/17 79/160/17
f 126/161/17 128/162/17 129/163/17
f 66/164/35 81/165/9 65/166/36
f 66/164/35 84/167/11 82/168/10
f 67/169/37 85/170/12 84/167/11
f 69/171/38 85/172/12 68/173/39
f 70/174/40 86/175/13 69/171/38
f 70/174/40 88/176/15 87/177/14
f 71/178/41 89/179/16 88/176/15
f 73/180/42 89/179/16 72/181/43
f 73/180/42 91/182/1 90/183/2
f 74/184/44 92/185/3 91/182/1
f 76/186/45 92/185/3 75/187/46
f 76/186/45 94/188/5 93/189/4
f 78/190/47 94/188/5 77/191/48
f 78/190/47 96/192/7 95/193/6
f 79/194/49 97/195/8 96/192/7
f 65/166/36 97/195/8 80/196/50
f 51/89/21 98/197/51 50/87/20
f 67/198/7 99/199/7 51/200/7
f 66/164/35 100/201/52 67/169/37
f 50/202/14 101/203/14 66/204/14
f 53/94/23 102/205/53 52/91/22
f 69/206/9 103/207/9 53/208/9
f 68/173/39 104/209/54 69/171/38
f 52/210/16 105/211/16 68/212/16
f 55/98/25 106/213/55 54/96/24
f 71/214/11 107/215/11 55/216/11
f 70/174/40 108/217/56 71/178/41
f 54/218/1 109/219/1 70/220/1
f 57/102/27 110/221/57 56/100/26
f 57/222/13 112/223/13 111/224/13
f 73/180/42 113/225/58 112/226/58
f 56/227/4 113/228/4 72/229/4
f 58/104/28 115/230/52 114/231/52
f 75/232/15 115/233/15 59/234/15
f 74/184/44 116/235/51 75/187/46
f 74/236/6 114/237/6 117/238/6
f 61/110/31 118/239/54 60/108/30
f 77/240/2 119/241/2 61/242/2
f 76/186/45 120/243/53 77/191/48
f 60/244/8 121/245/8 76/246/8
f 63/114/33 122/247/56 62/112/32
f 79/248/3 123/249/3 63/250/3
f 78/190/47 124/251/55 79/194/49
f 62/252/10 125/253/10 78/254/10
f 49/84/19 126/255/58 64/115/34
f 49/256/5 128/257/5 127/258/5
f 65/166/36 129/259/57 128/260/57
f 64/261/12 129/262/12 80/263/12
f 2/1/1 18/5/1 17/2/2
f 3/4/3 19/7/3 18/5/1
f 4/6/4 20/264/4 19/7/3
f 5/8/5 21/12/5 20/9/4
f 6/11/6 22/14/6 21/12/5
f 7/13/7 23/16/7 22/14/6
f 8/15/8 24/18/8 23/16/7
f 9/17/9 25/20/9 24/18/8
f 10/19/10 26/22/10 25/20/9
f 11/21/11 27/24/11 26/22/10
f 12/23/12 28/26/12 27/24/11
f 13/25/13 29/28/13 28/26/12
f 14/27/14 30/30/14 29/28/13
f 15/29/15 31/32/15 30/30/14
f 16/31/16 32/33/16 31/32/15
f 1/3/2 17/2/2 32/33/16
f 18/51/18 34/55/18 33/52/18
f 19/54/18 35/57/18 34/55/18
f 19/54/18 20/58/18 36/56/18
f 20/58/18 21/61/18 37/59/18
f 22/60/18 38/63/18 37/59/18
f 23/62/18 39/65/18 38/63/18
f 24/64/18 40/67/18 39/65/18
f 24/64/18 25/68/18 41/66/18
f 25/68/18 26/70/18 42/69/18
f 26/70/18 27/72/18 43/71/18
f 27/72/18 28/75/18 44/73/18
f 29/74/18 45/77/18 44/73/18
f 29/74/18 30/79/18 46/76/18
f 31/78/18 47/81/18 46/76/18
f 32/80/18 48/82/18 47/81/18
f 17/53/18 33/52/18 48/82/18
f 34/83/1 50/87/20 49/84/19
f 35/86/3 51/89/21 50/87/20
f 36/88/4 52/265/22 51/89/21
f 37/90/5 53/94/23 52/91/22
f 38/93/6 54/96/24 53/94/23
f 39/95/7 55/98/25 54/96/24
f 40/97/8 56/100/26 55/98/25
f 41/99/9 57/102/27 56/100/26
f 42/101/10 58/104/28 57/102/27
f 43/103/11 59/106/29 58/104/28
f 44/105/12 60/108/30 59/106/29
f 45/107/13 61/110/31 60/108/30
f 46/109/14 62/112/32 61/110/31
f 47/111/15 63/114/33 62/112/32
f 48/113/16 64/115/34 63/114/33
f 33/85/2 49/84/19 64/115/34
f 50/116/17 66/266/17 65/117/17
f 99/119/17 100/267/17 101/120/17
f 52/122/17 68/268/17 67/123/17
f 102/125/17 103/269/17 104/126/17
f 54/128/17 70/270/17 69/129/17
f 106/131/17 107/271/17 108/132/17
f 56/134/17 72/272/17 71/135/17
f 111/137/17 112/273/17 113/138/17
f 57/140/17 58/274/17 74/141/17
f 114/143/17 115/275/17 116/144/17
f 59/146/17 60/276/17 76/147/17
f 119/149/17 120/277/17 121/150/17
f 62/152/17 78/278/17 77/153/17
f 123/155/17 124/279/17 125/156/17
f 63/158/17 64/280/17 80/159/17
f 126/161/17 127/281/17 128/162/17
f 66/164/35 82/168/10 81/165/9
f 66/164/35 67/169/37 84/167/11
f 67/169/37 68/282/39 85/170/12
f 69/171/38 86/175/13 85/172/12
f 70/174/40 87/177/14 86/175/13
f 70/174/40 71/178/41 88/176/15
f 71/178/41 72/181/43 89/179/16
f 73/180/42 90/183/2 89/179/16
f 73/180/42 74/184/44 91/182/1
f 74/184/44 75/187/46 92/185/3
f 76/186/45 93/189/4 92/185/3
f 76/186/45 77/191/48 94/188/5
f 78/190/47 95/193/6 94/188/5
f 78/190/47 79/194/49 96/192/7
f 79/194/49 80/196/50 97/195/8
f 65/166/36 81/165/9 97/195/8
f 51/89/21 99/283/51 98/197/51
f 67/198/7 100/284/7 99/199/7
f 66/164/35 101/285/52 100/201/52
f 50/202/14 98/286/14 101/203/14
f 53/94/23 103/287/53 102/205/53
f 69/206/9 104/288/9 103/207/9
f 68/173/39 105/289/54 104/209/54
f 52/210/16 102/290/16 105/211/16
f 55/98/25 107/291/55 106/213/55
f 71/214/11 108/292/11 107/215/11
f 70/174/40 109/293/56 108/217/56
f 54/218/1 106/294/1 109/219/1
f 57/102/27 111/295/57 110/221/57
f 57/222/13 73/296/13 112/223/13
f 73/180/42 72/181/43 113/225/58
f 56/227/4 110/297/4 113/228/4
f 58/104/28 59/106/29 115/230/52
f 75/232/15 116/298/15 115/233/15
f 74/184/44 117/299/51 116/235/51
f 74/236/6 58/300/6 114/237/6
f 61/110/31 119/301/54 118/239/54
f 77/240/2 120/302/2 119/241/2
f 76/186/45 121/303/53 120/243/53
f 60/244/8 118/304/8 121/245/8
f 63/114/33 123/305/56 122/247/56
f 79/248/3 124/306/3 123/249/3
f 78/190/47 125/307/55 124/251/55
f 62/252/10 122/308/10 125/253/10
f 49/84/19 127/309/58 126/255/58
f 49/256/5 65/310/5 128/257/5
f 65/166/36 80/196/50 129/259/57
f 64/261/12 126/311/12 129/262/12
