# Blender v2.79 (sub 0) OBJ File: ''
# www.blender.org
o castle_floor
v -26.287537 0.124401 29.715918
v -26.287537 -21.825827 -9.086965
v -26.287537 -21.825834 29.715918
v -26.287537 0.124406 -9.086964
v 24.372459 -21.825827 -9.086965
v 24.372459 0.124406 -9.086964
v 24.372459 -21.825834 29.715918
v 24.372459 0.124401 29.715918
vt 0.605738 5.792805
vt 5.807517 0.591026
vt 0.605738 0.591026
vt 0.463976 5.792805
vt 5.665755 0.591026
vt 0.463976 0.591026
vt 0.605738 5.792805
vt -4.596041 0.591026
vt 0.605738 0.591026
vt 0.463976 5.792805
vt -4.737803 0.591026
vt 0.463976 0.591026
vt 5.665755 0.519659
vt 0.463976 -4.682119
vt 0.463976 0.519659
vt -4.737803 0.519659
vt 0.463976 -4.682119
vt 0.463976 0.519659
vt 5.807517 5.792805
vt 5.665755 5.792805
vt -4.596041 5.792805
vt -4.737803 5.792805
vt 5.665755 -4.682119
vt -4.737803 -4.682119
vn -1.0000 0.0000 0.0000
vn 0.0000 0.0000 -1.0000
vn 1.0000 0.0000 0.0000
vn 0.0000 0.0000 1.0000
vn 0.0000 -1.0000 -0.0000
vn 0.0000 1.0000 0.0000
s 1
f 1/1/1 2/2/1 3/3/1
f 4/4/2 5/5/2 2/6/2
f 6/7/3 7/8/3 5/9/3
f 8/10/4 3/11/4 7/12/4
f 5/13/5 3/14/5 2/15/5
f 4/16/6 8/17/6 6/18/6
f 1/1/1 4/19/1 2/2/1
f 4/4/2 6/20/2 5/5/2
f 6/7/3 8/21/3 7/8/3
f 8/10/4 1/22/4 3/11/4
f 5/13/5 7/23/5 3/14/5
f 4/16/6 1/24/6 8/17/6
o castle_floor.001
v -26.287537 0.124395 125.538986
v -26.287537 -23.844011 46.125134
v -26.287537 -23.844027 125.539001
v -26.287537 0.124408 46.125130
v 24.372459 -23.844011 46.125134
v 24.372459 0.124408 46.125130
v 24.372459 -23.844027 125.539001
v 24.372459 0.124395 125.538986
vt 0.605738 5.792805
vt 5.807517 0.591026
vt 0.605738 0.591026
vt 0.463976 5.792805
vt 5.665755 0.591026
vt 0.463976 0.591026
vt 0.605738 5.792805
vt -4.596041 0.591026
vt 0.605738 0.591026
vt 0.463976 5.792805
vt -4.737803 0.591026
vt 0.463976 0.591026
vt 5.665755 0.519659
vt 0.463976 -4.682119
vt 0.463976 0.519659
vt -4.737803 0.519659
vt 0.463976 -4.682119
vt 0.463976 0.519659
vt 5.807517 5.792805
vt 5.665755 5.792805
vt -4.596041 5.792805
vt -4.737803 5.792805
vt 5.665755 -4.682119
vt -4.737803 -4.682119
vn -1.0000 -0.0000 0.0000
vn 0.0000 -0.0000 -1.0000
vn 1.0000 -0.0000 0.0000
vn 0.0000 0.0000 1.0000
vn 0.0000 -1.0000 -0.0000
vn 0.0000 1.0000 0.0000
s 1
f 9/25/7 10/26/7 11/27/7
f 12/28/8 13/29/8 10/30/8
f 14/31/9 15/32/9 13/33/9
f 16/34/10 11/35/10 15/36/10
f 13/37/11 11/38/11 10/39/11
f 12/40/12 16/41/12 14/42/12
f 9/25/7 12/43/7 10/26/7
f 12/28/8 14/44/8 13/29/8
f 14/31/9 16/45/9 15/32/9
f 16/34/10 9/46/10 11/35/10
f 13/37/11 15/47/11 11/38/11
f 12/40/12 9/48/12 16/41/12
