# Blender v2.79 (sub 0) OBJ File: 'TORREMOBA2.79.blend'
# www.blender.org
mtllib castle_wall.mtl
o pCube1_Untitled.001
v -0.124941 -0.001591 0.665432
v 0.124941 -0.001591 0.665432
v -0.171830 0.711948 0.665432
v 0.171830 0.711948 0.665432
v -0.124941 -0.001591 -0.670327
v 0.124941 -0.001591 -0.670327
v -0.124941 0.542785 -0.670327
v -0.124941 0.542785 0.665432
v 0.124941 0.542785 0.665432
v 0.124941 0.542785 -0.670327
v -0.171830 0.711948 0.665432
v 0.171830 0.711948 0.665432
v 0.171830 0.711948 -0.670327
v -0.171830 0.711948 -0.670327
v 0.153587 0.605050 -0.670327
v -0.153587 0.605050 -0.670327
v 0.153587 0.605050 0.665432
v -0.153587 0.605050 0.665432
v -0.110012 0.711948 0.665432
v 0.110012 0.711948 0.665432
v 0.110012 0.711948 -0.670327
v -0.110012 0.711948 -0.670327
v 0.171830 0.711948 0.577469
v 0.171830 0.711948 -0.582364
v 0.110012 0.711948 -0.582364
v 0.110012 0.711948 0.577469
v -0.171830 0.711948 0.577469
v -0.171830 0.711948 -0.582364
v -0.110012 0.711948 0.577469
v -0.110012 0.711948 -0.582364
v 0.171830 0.711948 0.472347
v 0.171830 0.711948 -0.477242
v 0.110012 0.711948 -0.477242
v 0.110012 0.711948 0.472347
v -0.171830 0.711948 0.472347
v -0.171830 0.711948 -0.477242
v -0.110012 0.711948 0.472347
v -0.110012 0.711948 -0.477242
v 0.171830 0.711948 0.370454
v 0.171830 0.711948 -0.375349
v 0.110012 0.711948 -0.375349
v 0.110012 0.711948 0.370454
v -0.171830 0.711948 0.370454
v -0.171830 0.711948 -0.375349
v -0.110012 0.711948 0.370454
v -0.110012 0.711948 -0.375349
v 0.171830 0.711948 0.265567
v 0.171830 0.711948 -0.270462
v 0.110012 0.711948 -0.270462
v 0.110012 0.711948 0.265567
v -0.171830 0.711948 0.265567
v -0.171830 0.711948 -0.270462
v -0.110012 0.711948 0.265567
v -0.110012 0.711948 -0.270462
v 0.171830 0.711948 0.163381
v 0.171830 0.711948 -0.168276
v 0.110012 0.711948 -0.168276
v 0.110012 0.711948 0.163381
v -0.171830 0.711948 0.163381
v -0.171830 0.711948 -0.168276
v -0.110012 0.711948 0.163381
v -0.110012 0.711948 -0.168276
v 0.171830 0.711948 0.050406
v 0.171830 0.711948 -0.055302
v 0.110012 0.711948 -0.055302
v 0.110012 0.711948 0.050406
v -0.171830 0.711948 0.050406
v -0.171830 0.711948 -0.055302
v -0.110012 0.711948 0.050406
v -0.110012 0.711948 -0.055302
v 0.171830 0.786764 0.050406
v 0.171830 0.786764 -0.055302
v 0.110012 0.786764 -0.055302
v 0.110012 0.786764 0.050406
v -0.171830 0.786764 0.050406
v -0.171830 0.786764 -0.055302
v -0.110012 0.786764 0.050406
v -0.110012 0.786764 -0.055302
v 0.171830 0.786764 -0.670327
v 0.110012 0.786764 -0.670327
v 0.110012 0.786764 -0.582364
v 0.171830 0.786764 -0.582364
v 0.171830 0.786764 0.665432
v 0.110012 0.786764 0.665432
v 0.171830 0.786764 0.577469
v 0.110012 0.786764 0.577469
v -0.171830 0.786764 0.665432
v -0.110012 0.786764 0.665432
v -0.110012 0.786764 0.577469
v -0.171830 0.786764 0.577469
v -0.171830 0.786764 -0.670327
v -0.110012 0.786764 -0.670327
v -0.171830 0.786764 -0.582364
v -0.110012 0.786764 -0.582364
v 0.171830 0.786764 -0.477242
v 0.110012 0.786764 -0.477242
v 0.110012 0.786764 -0.375349
v 0.171830 0.786764 -0.375349
v 0.171830 0.786764 0.472347
v 0.110012 0.786764 0.472347
v 0.171830 0.786764 0.370454
v 0.110012 0.786764 0.370454
v -0.171830 0.786764 0.472347
v -0.110012 0.786764 0.472347
v -0.110012 0.786764 0.370454
v -0.171830 0.786764 0.370454
v -0.171830 0.786764 -0.477242
v -0.110012 0.786764 -0.477242
v -0.171830 0.786764 -0.375349
v -0.110012 0.786764 -0.375349
v 0.171830 0.786764 -0.270462
v 0.110012 0.786764 -0.270462
v 0.110012 0.786764 -0.168276
v 0.171830 0.786764 -0.168276
v 0.171830 0.786764 0.265567
v 0.110012 0.786764 0.265567
v 0.171830 0.786764 0.163381
v 0.110012 0.786764 0.163381
v -0.171830 0.786764 0.265567
v -0.110012 0.786764 0.265567
v -0.110012 0.786764 0.163381
v -0.171830 0.786764 0.163381
v -0.171830 0.786764 -0.270462
v -0.110012 0.786764 -0.270462
v -0.171830 0.786764 -0.168276
v -0.110012 0.786764 -0.168276
vt 2.835304 -0.529842
vt 2.339237 1.500056
vt 2.339237 -0.529842
vt -2.091366 1.861174
vt -1.398835 1.668794
vt -1.360013 1.861174
vt 3.869612 -0.529842
vt 3.306224 1.500056
vt 3.306224 -0.529842
vt 1.466783 0.885454
vt -0.466783 1.079389
vt -0.466783 0.885454
vt -0.466783 0.885454
vt 1.466783 1.079389
vt 1.466783 0.885454
vt -0.466783 -0.215121
vt 1.466783 0.772492
vt 1.466783 -0.215121
vt -1.991588 0.558802
vt -1.459802 -0.421000
vt -1.459802 0.558802
vt 1.466783 -0.215121
vt -0.466783 0.772492
vt -0.466783 -0.215121
vt -1.991587 1.556728
vt -1.459792 0.576921
vt -1.459792 1.556728
vt 0.375000 0.250000
vt 0.625000 0.250000
vt 0.375000 0.250000
vt -2.052543 1.668794
vt 1.466783 0.772492
vt -0.466783 0.772492
vt 0.625000 0.250000
vt 0.375000 0.250000
vt -2.688423 2.157323
vt -2.900537 2.265580
vt -2.900537 2.157323
vt 0.625000 0.500000
vt 0.375000 0.500000
vt 0.625000 0.500000
vt -2.900537 1.801979
vt -2.688423 1.693727
vt -2.688424 1.801979
vt 0.625000 0.500000
vt 0.625000 0.250000
vt -2.724031 -6.079246
vt -2.900537 -6.187504
vt -2.724031 -6.187503
vt 0.625000 0.250000
vt 0.625000 0.500000
vt -2.900537 -6.651102
vt -2.724032 -6.542848
vt -2.900537 -6.542848
vt 0.375000 0.500000
vt 0.375000 0.250000
vt 0.375000 0.500000
vt -2.900537 -7.114695
vt -2.724032 -7.006449
vt -2.900537 -7.006449
vt 0.375000 0.500000
vt 0.375000 0.250000
vt -2.724031 -7.470049
vt -2.900538 -7.578304
vt -2.724031 -7.578305
vt 0.625000 0.500000
vt 0.625000 0.250000
vt -2.689599 1.338372
vt -2.900537 1.230121
vt -2.689599 1.230121
vt 0.625000 0.250000
vt 0.625000 0.500000
vt -2.900537 0.766520
vt -2.689599 0.874771
vt -2.900537 0.874771
vt 0.375000 0.250000
vt 0.375000 0.500000
vt -2.900537 0.302924
vt -2.689599 0.411174
vt -2.900537 0.411174
vt 0.375000 0.500000
vt 0.375000 0.250000
vt -2.689598 -0.052428
vt -2.900537 -0.160677
vt -2.689599 -0.160677
vt 0.625000 0.500000
vt 0.625000 0.250000
vt -2.696079 -4.224840
vt -2.900537 -4.333095
vt -2.696079 -4.333096
vt 0.625000 0.250000
vt 0.625000 0.500000
vt -2.900537 -4.796698
vt -2.696078 -4.688440
vt -2.900537 -4.688440
vt 0.375000 0.250000
vt 0.375000 0.500000
vt -2.900537 -5.260299
vt -2.696079 -5.152043
vt -2.900537 -5.152043
vt 0.375000 0.500000
vt 0.375000 0.250000
vt -2.696079 -5.615644
vt -2.900537 -5.723889
vt -2.696079 -5.723888
vt 0.625000 0.500000
vt 0.625000 0.250000
vt -2.690073 -0.516034
vt -2.900537 -0.624285
vt -2.690072 -0.624285
vt 0.625000 0.250000
vt 0.625000 0.500000
vt -2.900537 -1.087880
vt -2.690072 -0.979629
vt -2.900537 -0.979629
vt 0.375000 0.250000
vt 0.375000 0.500000
vt -2.900537 -1.551482
vt -2.690072 -1.443231
vt -2.900537 -1.443231
vt 0.375000 0.500000
vt 0.375000 0.250000
vt -2.690072 -1.906833
vt -2.900537 -2.015083
vt -2.690072 -2.015084
vt 0.625000 0.500000
vt 0.625000 0.250000
vt -2.695489 -2.370435
vt -2.900537 -2.478691
vt -2.695489 -2.478691
vt 0.625000 0.250000
vt 0.625000 0.500000
vt -2.900537 -2.942291
vt -2.695490 -2.834036
vt -2.900538 -2.834036
vt 0.375000 0.250000
vt 0.375000 0.500000
vt -2.900537 -3.405880
vt -2.695489 -3.297636
vt -2.900537 -3.297636
vt 0.375000 0.500000
vt 0.375000 0.250000
vt -2.695489 -3.761238
vt -2.900537 -3.869482
vt -2.695489 -3.869481
vt 0.625000 0.500000
vt 0.625000 0.250000
vt -2.673844 4.119979
vt -2.900537 4.011730
vt -2.673843 4.011730
vt 0.625000 0.250000
vt 0.625000 0.500000
vt -2.900537 3.548129
vt -2.673843 3.656378
vt -2.900537 3.656377
vt 0.375000 0.250000
vt 0.375000 0.500000
vt -2.900537 3.084532
vt -2.673843 3.192783
vt -2.900537 3.192783
vt 0.375000 0.500000
vt 0.375000 0.250000
vt -2.673843 2.729182
vt -2.900537 2.620931
vt -2.673843 2.620932
vt 0.576509 1.079389
vt 0.423492 1.215121
vt 0.423492 1.079389
vt -1.224143 -0.778973
vt -1.355695 -0.644322
vt -1.355695 -0.778973
vt 0.423492 1.079389
vt 0.576509 1.215121
vt 0.576509 1.079389
vt -1.355712 -0.493410
vt -1.224153 -0.628071
vt -1.224153 -0.493410
vt 0.423492 1.079389
vt 0.576508 1.215121
vt 0.576508 1.079389
vt -1.355712 -0.342489
vt -1.224157 -0.477149
vt -1.224157 -0.342489
vt 0.576508 1.079389
vt 0.423492 1.215121
vt 0.423492 1.079389
vt -1.224143 -0.326228
vt -1.355694 -0.191577
vt -1.355694 -0.326228
vt -1.224143 -0.175316
vt -1.355695 -0.040666
vt -1.355694 -0.175317
vt 1.339453 1.079389
vt 1.466783 1.215121
vt 1.466783 1.079389
vt -1.355712 0.110246
vt -1.224153 -0.024414
vt -1.224153 0.110246
vt 1.466783 1.079389
vt 1.339453 1.215121
vt 1.339453 1.079389
vt -1.355712 0.261163
vt -1.224153 0.126502
vt -1.224153 0.261163
vt -0.339454 1.079389
vt -0.466783 1.215121
vt -1.224143 0.277414
vt -1.355695 0.412064
vt -1.355695 0.277414
vt -0.466783 1.079389
vt -0.339454 1.215121
vt -0.339454 1.079389
vt -1.355712 0.562986
vt -1.224157 0.428325
vt -1.224157 0.562986
vt -0.339454 1.079389
vt -0.466783 1.215121
vt -0.466783 1.079389
vt -1.224143 0.579247
vt -1.355694 0.713898
vt -1.355695 0.579247
vt -0.466783 1.079389
vt -0.339454 1.215121
vt -0.339454 1.079389
vt -1.224143 0.730163
vt -1.355694 0.864814
vt -1.355695 0.730163
vt 1.339453 1.079389
vt 1.466783 1.215121
vt -1.355706 1.015735
vt -1.224151 0.881075
vt -1.224151 1.015735
vt 1.466783 1.079389
vt 1.339453 1.215121
vt 1.339453 1.079389
vt -1.224143 1.031996
vt -1.355694 1.166648
vt -1.355694 1.031996
vt 1.039790 1.079389
vt 1.187284 1.215121
vt 1.187284 1.079389
vt -1.355706 1.317564
vt -1.224147 1.182903
vt -1.224147 1.317564
vt 1.187284 1.079389
vt 1.039790 1.215121
vt 1.039790 1.079389
vt -1.355706 1.468470
vt -1.224147 1.333810
vt -1.224147 1.468471
vt -0.039790 1.079389
vt -0.187285 1.215121
vt -0.187285 1.079389
vt -1.224143 1.484727
vt -1.355694 1.619377
vt -1.355695 1.484727
vt -0.187285 1.079389
vt -0.039790 1.215121
vt -0.039790 1.079389
vt -1.355706 1.770299
vt -1.224151 1.635638
vt -1.224151 1.770298
vt -0.039790 1.079389
vt -0.187285 1.215121
vt -0.187285 1.079389
vt -1.088289 1.726524
vt -1.219840 1.861174
vt -1.219840 1.726523
vt -0.187285 1.079389
vt -0.039790 1.215121
vt -0.039790 1.079389
vt -1.088273 1.571024
vt -1.219824 1.705675
vt -1.219824 1.571024
vt 1.039790 1.079389
vt 1.187284 1.215121
vt 1.187284 1.079389
vt -1.219836 1.550692
vt -1.088281 1.416031
vt -1.088281 1.550691
vt 1.187284 1.079389
vt 1.039790 1.215121
vt 1.039790 1.079389
vt -1.088289 1.261062
vt -1.219840 1.395714
vt -1.219840 1.261062
vt 0.740043 1.079389
vt 0.887963 1.215121
vt 0.887963 1.079389
vt -1.219836 1.240731
vt -1.088277 1.106070
vt -1.088277 1.240731
vt 0.887963 1.079389
vt 0.740043 1.215121
vt 0.740043 1.079389
vt -1.219836 1.085747
vt -1.088277 0.951087
vt -1.088277 1.085747
vt 0.259957 1.079389
vt 0.112037 1.215121
vt 0.112037 1.079389
vt -1.088273 0.796114
vt -1.219824 0.930764
vt -1.219824 0.796114
vt 0.112037 1.079389
vt 0.259957 1.215121
vt 0.259957 1.079389
vt -1.219836 0.775777
vt -1.088281 0.641116
vt -1.088281 0.775777
vt 0.259957 1.079389
vt 0.112037 1.215121
vt 0.112037 1.079389
vt -1.088273 0.486143
vt -1.219824 0.620794
vt -1.219824 0.486143
vt 0.112037 1.079389
vt 0.259957 1.215121
vt 0.259957 1.079389
vt -1.088273 0.331160
vt -1.219824 0.465811
vt -1.219824 0.331160
vt 0.740043 1.079389
vt 0.887963 1.215121
vt 0.887963 1.079389
vt -1.219842 0.310828
vt -1.088287 0.176167
vt -1.088287 0.310828
vt 0.887963 1.079389
vt 0.740043 1.215121
vt 0.740043 1.079389
vt -1.991588 -0.421000
vt -1.398838 -0.533065
vt -2.091376 -0.725466
vt -1.360015 -0.725466
vt 2.835304 1.500056
vt 3.869612 1.500056
vt -1.991586 0.576921
vt 0.625000 0.250000
vt -2.688424 2.265580
vt -2.900537 1.693728
vt -2.900537 -6.079246
vt -2.724032 -6.651102
vt -2.724032 -7.114695
vt -2.900537 -7.470050
vt -2.900537 1.338372
vt -2.689599 0.766520
vt -2.689599 0.302924
vt -2.900537 -0.052428
vt -2.900537 -4.224839
vt -2.696078 -4.796698
vt -2.696078 -5.260299
vt -2.900537 -5.615644
vt -2.900537 -0.516034
vt -2.690072 -1.087880
vt -2.690072 -1.551482
vt -2.900537 -1.906833
vt -2.900537 -2.370435
vt -2.695489 -2.942291
vt -2.695489 -3.405880
vt -2.900537 -3.761238
vt -2.900537 4.119981
vt -2.673843 3.548129
vt -2.673843 3.084532
vt -2.900537 2.729182
vt 0.576509 1.215121
vt -1.224143 -0.644322
vt 0.423492 1.215121
vt -1.355712 -0.628071
vt 0.423492 1.215121
vt -1.355712 -0.477150
vt 0.576508 1.215121
vt -1.224143 -0.191577
vt -1.224143 -0.040666
vt 1.339453 1.215121
vt -1.355712 -0.024415
vt 1.466783 1.215121
vt -1.355712 0.126502
vt -0.339454 1.215121
vt -1.224143 0.412064
vt -0.466783 1.215121
vt -1.355712 0.428325
vt -0.339454 1.215121
vt -1.224143 0.713898
vt -0.466783 1.215121
vt -1.224143 0.864814
vt 1.339453 1.215121
vt -1.355706 0.881075
vt 1.466783 1.215121
vt -1.224143 1.166647
vt 1.039790 1.215121
vt -1.355706 1.182903
vt 1.187284 1.215121
vt -1.355706 1.333810
vt -0.039790 1.215121
vt -1.224143 1.619377
vt -0.187285 1.215121
vt -1.355706 1.635638
vt -0.039790 1.215121
vt -1.088289 1.861174
vt -0.187285 1.215121
vt -1.088273 1.705675
vt 1.039790 1.215121
vt -1.219836 1.416031
vt 1.187284 1.215121
vt -1.088289 1.395714
vt 0.740043 1.215121
vt -1.219836 1.106070
vt 0.887963 1.215121
vt -1.219836 0.951087
vt 0.259957 1.215121
vt -1.088273 0.930764
vt 0.112037 1.215121
vt -1.219836 0.641116
vt 0.259957 1.215121
vt -1.088273 0.620794
vt 0.112037 1.215121
vt -1.088273 0.465811
vt 0.740043 1.215121
vt -1.219842 0.176167
vt 0.887963 1.215121
vt -2.052549 -0.533066
vn -0.0002 1.0000 0.0000
vn 0.0000 1.0000 0.0000
vn 0.0000 0.0000 -1.0000
vn 0.0000 -1.0000 -0.0000
vn 0.9857 -0.1682 -0.0000
vn -0.9857 -0.1682 -0.0000
vn -1.0000 -0.0000 0.0000
vn 0.0000 -0.0000 1.0000
vn 1.0000 0.0000 0.0000
vn 0.9085 -0.4180 -0.0000
vn -0.9085 -0.4180 -0.0000
vn -0.9239 0.0000 -0.3827
vn 0.0000 0.0000 0.0000
vn 0.4066 0.2034 -0.8907
vn 0.9593 0.0804 0.2706
vn 0.9239 0.2706 0.2706
vn 0.8321 0.0705 0.5501
vn 0.9440 0.1891 0.2706
vn -0.3016 0.3016 0.9045
vn 0.9423 -0.3348 0.0000
vn 0.0483 0.1546 -0.9868
vn -0.6176 0.3088 -0.7233
vn 0.9133 -0.4073 0.0000
vn -0.6879 0.6735 0.2706
vn 0.6075 -0.7468 0.2706
vn -0.9017 -0.3006 -0.3109
vn -0.7336 0.6234 -0.2706
vn 0.3877 -0.8812 -0.2706
vn 0.5462 -0.8376 0.0000
vn 0.9908 -0.1353 0.0000
vn -0.4440 0.8960 0.0000
vn 0.9774 0.2115 0.0000
vn -0.8944 0.4472 0.0000
vn -0.6461 0.7137 -0.2706
vn 0.7935 0.5452 -0.2706
vn 0.5774 0.5773 -0.5773
vn 0.7455 -0.6665 0.0000
vn -0.7177 -0.6963 -0.0000
vn -0.6749 0.7379 -0.0000
vn 0.4502 -0.8868 -0.1042
vn 0.1818 0.2845 -0.9413
vn -0.6234 -0.2580 -0.7381
vn -0.6143 0.7292 0.3016
vn -0.9785 0.0249 0.2045
vn 0.8045 -0.5940 0.0000
vn -0.8011 -0.1577 -0.5774
vn 0.9532 0.0238 -0.3015
vn -0.8059 0.5095 0.3015
vn 0.1671 0.7992 -0.5774
vn 0.5473 -0.8369 0.0000
vn -0.8531 0.5218 0.0000
vn 0.3997 -0.1483 0.9046
vn 0.7040 0.7102 0.0000
vn -0.6409 0.7676 0.0000
vn -0.6645 0.7473 0.0000
vn 0.9236 -0.3832 0.0000
vn -0.9045 -0.3015 0.3015
vn -0.8444 0.3735 0.3840
vn -0.4890 0.3889 -0.7808
vn -0.7950 0.4707 0.3827
vn 0.9204 -0.0805 -0.3827
vn -0.1832 0.3852 -0.9045
vn -0.8438 0.3763 0.3827
vn -0.8152 -0.0457 0.5773
vn -0.6143 0.7292 -0.3016
vn -0.3833 0.7209 0.5774
vn 0.1671 0.7992 0.5774
vn 0.7655 -0.2841 0.5773
vn 0.9045 0.3015 -0.3015
usemtl lambert2
s 1
f 20/1/1 22/2/2 19/3/2
f 13/4/3 16/5/3 14/6/3
f 6/7/4 1/8/4 5/9/4
f 15/10/5 12/11/5 17/12/5
f 18/13/6 14/14/6 16/15/6
f 1/16/7 7/17/7 5/18/7
f 2/19/8 8/20/8 1/21/8
f 6/22/9 9/23/9 2/24/9
f 10/25/3 5/26/3 7/27/3
f 3/28/8 12/29/8 11/30/8
f 10/25/3 16/5/3 15/31/3
f 10/32/10 17/12/10 9/23/10
f 8/33/11 16/15/11 7/17/11
f 11/30/8 20/34/3 19/35/8
f 72/36/2 74/37/2 71/38/2
f 13/39/3 22/40/8 21/41/3
f 75/42/2 78/43/2 76/44/2
f 12/29/12 24/45/13 23/46/14
f 80/47/2 82/48/2 79/49/2
f 21/41/2 26/50/15 25/51/16
f 83/52/2 86/53/2 84/54/2
f 14/55/17 27/56/18 28/57/16
f 88/58/2 90/59/2 87/60/2
f 19/35/19 30/61/20 29/62/9
f 91/63/2 94/64/2 92/65/2
f 23/46/14 32/66/21 31/67/22
f 25/68/2 32/69/21 24/70/13
f 25/51/16 34/71/23 33/72/7
f 23/73/14 34/74/2 26/75/2
f 28/57/16 35/76/24 36/77/25
f 29/78/2 35/79/2 27/80/2
f 29/62/26 38/81/27 37/82/28
f 28/83/2 38/84/2 30/85/2
f 31/67/22 40/86/29 39/87/7
f 96/88/2 98/89/2 95/90/2
f 33/72/7 42/91/30 41/92/31
f 99/93/2 102/94/2 100/95/2
f 36/77/25 43/96/32 44/97/33
f 104/98/2 106/99/2 103/100/2
f 37/82/28 46/101/34 45/102/35
f 107/103/2 110/104/2 108/105/2
f 39/87/36 48/106/37 47/107/7
f 41/108/31 48/109/2 40/110/2
f 41/92/31 50/111/38 49/112/13
f 39/113/2 50/114/38 42/115/30
f 44/97/33 51/116/39 52/117/40
f 45/118/2 51/119/39 43/120/32
f 45/102/2 54/121/41 53/122/42
f 44/123/33 54/124/41 46/125/2
f 47/107/43 56/126/44 55/127/45
f 112/128/2 114/129/2 111/130/2
f 49/112/46 58/131/47 57/132/48
f 115/133/2 118/134/2 116/135/2
f 52/117/49 59/136/50 60/137/51
f 120/138/2 122/139/2 119/140/2
f 53/122/52 62/141/53 61/142/54
f 123/143/2 126/144/2 124/145/2
f 55/127/45 64/146/33 63/147/55
f 57/148/2 64/149/33 56/150/44
f 57/132/48 66/151/56 65/152/7
f 55/153/45 66/154/2 58/155/2
f 60/137/57 67/156/9 68/157/7
f 61/158/54 67/159/2 59/160/2
f 61/142/54 70/161/58 69/162/59
f 60/163/2 70/164/58 62/165/53
f 64/166/9 71/167/9 63/168/9
f 65/169/3 72/170/3 64/171/3
f 66/172/7 73/173/7 65/174/7
f 63/175/8 74/176/8 66/177/8
f 67/178/7 76/179/7 68/180/7
f 69/181/8 75/182/8 67/183/8
f 70/184/9 77/185/9 69/186/9
f 68/187/3 78/188/3 70/189/3
f 21/190/3 79/191/3 13/192/3
f 25/193/7 80/194/7 21/195/7
f 24/196/8 81/197/8 25/198/8
f 13/199/9 82/200/9 24/201/9
f 12/202/8 84/203/8 20/204/3
f 23/205/9 83/206/9 12/11/9
f 26/207/3 85/208/3 23/209/3
f 20/210/7 86/211/7 26/212/7
f 19/213/8 87/214/8 11/215/8
f 29/216/9 88/217/9 19/218/9
f 27/219/3 89/220/3 29/221/3
f 11/222/7 90/223/7 27/224/7
f 14/225/3 92/226/3 22/227/8
f 28/228/7 91/229/7 14/14/7
f 30/230/8 93/231/8 28/232/8
f 22/233/9 94/234/9 30/235/9
f 33/236/3 95/237/3 32/238/3
f 41/239/7 96/240/7 33/241/7
f 40/242/8 97/243/8 41/244/8
f 32/245/9 98/246/9 40/247/9
f 31/248/8 100/249/8 34/250/8
f 39/251/9 99/252/9 31/253/9
f 42/254/3 101/255/3 39/256/3
f 34/257/7 102/258/7 42/259/7
f 37/260/8 103/261/8 35/262/8
f 45/263/9 104/264/9 37/265/9
f 43/266/3 105/267/3 45/268/3
f 35/269/7 106/270/7 43/271/7
f 36/272/3 108/273/3 38/274/3
f 44/275/7 107/276/7 36/277/7
f 46/278/8 109/279/8 44/280/8
f 38/281/9 110/282/9 46/283/9
f 49/284/3 111/285/3 48/286/3
f 57/287/7 112/288/7 49/289/7
f 56/290/8 113/291/8 57/292/8
f 48/293/9 114/294/9 56/295/9
f 47/296/8 116/297/8 50/298/8
f 55/299/9 115/300/9 47/301/9
f 58/302/3 117/303/3 55/304/3
f 50/305/7 118/306/7 58/307/7
f 53/308/8 119/309/8 51/310/8
f 61/311/9 120/312/9 53/313/9
f 59/314/3 121/315/3 61/316/3
f 51/317/7 122/318/7 59/319/7
f 52/320/3 124/321/3 54/322/3
f 60/323/7 123/324/7 52/325/7
f 62/326/8 125/327/8 60/328/8
f 54/329/9 126/330/9 62/331/9
f 9/332/8 18/333/8 8/20/8
f 18/333/8 12/334/8 11/335/8
f 20/1/1 21/336/2 22/2/2
f 13/4/3 15/31/3 16/5/3
f 6/7/4 2/337/4 1/8/4
f 15/10/5 13/199/5 12/11/5
f 18/13/6 11/222/6 14/14/6
f 1/16/7 8/33/7 7/17/7
f 2/19/8 9/332/8 8/20/8
f 6/22/9 10/32/9 9/23/9
f 10/25/3 6/338/3 5/26/3
f 3/28/8 4/339/8 12/29/8
f 10/25/3 7/27/3 16/5/3
f 10/32/10 15/10/10 17/12/10
f 8/33/11 18/13/11 16/15/11
f 11/30/8 12/29/8 20/34/3
f 72/36/2 73/340/2 74/37/2
f 13/39/3 14/55/3 22/40/8
f 75/42/2 77/341/2 78/43/2
f 12/29/12 13/39/60 24/45/13
f 80/47/2 81/342/2 82/48/2
f 21/41/2 20/34/1 26/50/15
f 83/52/2 85/343/2 86/53/2
f 14/55/17 11/30/61 27/56/18
f 88/58/2 89/344/2 90/59/2
f 19/35/19 22/40/62 30/61/20
f 91/63/2 93/345/2 94/64/2
f 23/46/14 24/45/13 32/66/21
f 25/68/2 33/346/2 32/69/21
f 25/51/16 26/50/15 34/71/23
f 23/73/14 31/347/22 34/74/2
f 28/57/16 27/56/18 35/76/24
f 29/78/2 37/348/2 35/79/2
f 29/62/26 30/61/63 38/81/27
f 28/83/2 36/349/2 38/84/2
f 31/67/22 32/66/21 40/86/29
f 96/88/2 97/350/2 98/89/2
f 33/72/7 34/71/23 42/91/30
f 99/93/2 101/351/2 102/94/2
f 36/77/25 35/76/24 43/96/32
f 104/98/2 105/352/2 106/99/2
f 37/82/28 38/81/27 46/101/34
f 107/103/2 109/353/2 110/104/2
f 39/87/36 40/86/64 48/106/37
f 41/108/31 49/354/13 48/109/2
f 41/92/31 42/91/30 50/111/38
f 39/113/2 47/355/2 50/114/38
f 44/97/33 43/96/32 51/116/39
f 45/118/2 53/356/42 51/119/39
f 45/102/2 46/101/2 54/121/41
f 44/123/33 52/357/40 54/124/41
f 47/107/43 48/106/65 56/126/44
f 112/128/2 113/358/2 114/129/2
f 49/112/46 50/111/66 58/131/47
f 115/133/2 117/359/2 118/134/2
f 52/117/49 51/116/67 59/136/50
f 120/138/2 121/360/2 122/139/2
f 53/122/52 54/121/68 62/141/53
f 123/143/2 125/361/2 126/144/2
f 55/127/45 56/126/44 64/146/33
f 57/148/2 65/362/2 64/149/33
f 57/132/48 58/131/47 66/151/56
f 55/153/45 63/363/55 66/154/2
f 60/137/57 59/136/69 67/156/9
f 61/158/54 69/364/59 67/159/2
f 61/142/54 62/141/53 70/161/58
f 60/163/2 68/365/2 70/164/58
f 64/166/9 72/366/9 71/167/9
f 65/169/3 73/367/3 72/170/3
f 66/172/7 74/368/7 73/173/7
f 63/175/8 71/369/8 74/176/8
f 67/178/7 75/370/7 76/179/7
f 69/181/8 77/371/8 75/182/8
f 70/184/9 78/372/9 77/185/9
f 68/187/3 76/373/3 78/188/3
f 21/190/3 80/374/3 79/191/3
f 25/193/7 81/375/7 80/194/7
f 24/196/8 82/376/8 81/197/8
f 13/199/9 79/377/9 82/200/9
f 12/202/8 83/378/8 84/203/8
f 23/205/9 85/379/9 83/206/9
f 26/207/3 86/380/3 85/208/3
f 20/210/7 84/381/7 86/211/7
f 19/213/8 88/382/8 87/214/8
f 29/216/9 89/383/9 88/217/9
f 27/219/3 90/384/3 89/220/3
f 11/222/7 87/385/7 90/223/7
f 14/225/3 91/386/3 92/226/3
f 28/228/7 93/387/7 91/229/7
f 30/230/8 94/388/8 93/231/8
f 22/233/9 92/389/9 94/234/9
f 33/236/3 96/390/3 95/237/3
f 41/239/7 97/391/7 96/240/7
f 40/242/8 98/392/8 97/243/8
f 32/245/9 95/393/9 98/246/9
f 31/248/8 99/394/8 100/249/8
f 39/251/9 101/395/9 99/252/9
f 42/254/3 102/396/3 101/255/3
f 34/257/7 100/397/7 102/258/7
f 37/260/8 104/398/8 103/261/8
f 45/263/9 105/399/9 104/264/9
f 43/266/3 106/400/3 105/267/3
f 35/269/7 103/401/7 106/270/7
f 36/272/3 107/402/3 108/273/3
f 44/275/7 109/403/7 107/276/7
f 46/278/8 110/404/8 109/279/8
f 38/281/9 108/405/9 110/282/9
f 49/284/3 112/406/3 111/285/3
f 57/287/7 113/407/7 112/288/7
f 56/290/8 114/408/8 113/291/8
f 48/293/9 111/409/9 114/294/9
f 47/296/8 115/410/8 116/297/8
f 55/299/9 117/411/9 115/300/9
f 58/302/3 118/412/3 117/303/3
f 50/305/7 116/413/7 118/306/7
f 53/308/8 120/414/8 119/309/8
f 61/311/9 121/415/9 120/312/9
f 59/314/3 122/416/3 121/315/3
f 51/317/7 119/417/7 122/318/7
f 52/320/3 123/418/3 124/321/3
f 60/323/7 125/419/7 123/324/7
f 62/326/8 126/420/8 125/327/8
f 54/329/9 124/421/9 126/330/9
f 9/332/8 17/422/8 18/333/8
f 18/333/8 17/422/8 12/334/8
