# Blender v2.79 (sub 0) OBJ File: ''
# www.blender.org
o Cube_Cube.001
v -25.785326 0.245820 17.988276
v -25.785326 8.445821 17.988276
v -25.785326 0.245820 -32.231724
v -25.785326 8.445821 -32.231724
v -21.145327 0.245820 17.988276
v -21.145327 8.445821 17.988276
v -21.145327 0.245820 -32.231724
v -21.145327 8.445821 -32.231724
vn -1.0000 0.0000 0.0000
vn 0.0000 0.0000 -1.0000
vn 1.0000 0.0000 0.0000
vn 0.0000 0.0000 1.0000
vn 0.0000 -1.0000 0.0000
vn 0.0000 1.0000 0.0000
s off
f 2//1 3//1 1//1
f 4//2 7//2 3//2
f 8//3 5//3 7//3
f 6//4 1//4 5//4
f 7//5 1//5 3//5
f 4//6 6//6 8//6
f 2//1 4//1 3//1
f 4//2 8//2 7//2
f 8//3 6//3 5//3
f 6//4 2//4 1//4
f 7//5 5//5 1//5
f 4//6 2//6 6//6
o Cube.001_Cube.002
v 19.984253 0.135820 17.988276
v 19.984253 8.555820 17.988276
v 19.984253 0.135820 -32.231724
v 19.984253 8.555820 -32.231724
v 24.624252 0.135820 17.988276
v 24.624252 8.555820 17.988276
v 24.624252 0.135820 -32.231724
v 24.624252 8.555820 -32.231724
vn -1.0000 0.0000 0.0000
vn 0.0000 0.0000 -1.0000
vn 1.0000 0.0000 0.0000
vn 0.0000 0.0000 1.0000
vn 0.0000 -1.0000 0.0000
vn 0.0000 1.0000 0.0000
s off
f 10//7 11//7 9//7
f 12//8 15//8 11//8
f 16//9 13//9 15//9
f 14//10 9//10 13//10
f 15//11 9//11 11//11
f 12//12 14//12 16//12
f 10//7 12//7 11//7
f 12//8 16//8 15//8
f 16//9 14//9 13//9
f 14//10 10//10 9//10
f 15//11 13//11 9//11
f 12//12 10//12 14//12
o Cube.002_Cube.003
v 19.764057 0.135820 -32.218117
v 19.764057 8.555820 -32.218117
v -20.165939 0.135820 -32.218117
v -20.165939 8.555820 -32.218117
v 19.764057 0.135820 -36.858116
v 19.764057 8.555820 -36.858116
v -20.165939 0.135820 -36.858116
v -20.165939 8.555820 -36.858116
vn 0.0000 0.0000 1.0000
vn -1.0000 0.0000 0.0000
vn 0.0000 0.0000 -1.0000
vn 1.0000 0.0000 0.0000
vn 0.0000 -1.0000 0.0000
vn 0.0000 1.0000 0.0000
s off
f 18//13 19//13 17//13
f 20//14 23//14 19//14
f 24//15 21//15 23//15
f 22//16 17//16 21//16
f 23//17 17//17 19//17
f 20//18 22//18 24//18
f 18//13 20//13 19//13
f 20//14 24//14 23//14
f 24//15 22//15 21//15
f 22//16 18//16 17//16
f 23//17 21//17 17//17
f 20//18 18//18 22//18
o Cube.003_Cube.004
v 18.321472 -0.904872 -30.340803
v 18.321472 10.975128 -30.340803
v 18.321472 -0.904872 -38.100800
v 18.321472 10.975128 -38.100800
v 26.113422 -0.904872 -30.340803
v 26.113422 10.975128 -30.340803
v 26.113422 -0.904872 -38.100800
v 26.113422 10.975128 -38.100800
vn -1.0000 0.0000 0.0000
vn 0.0000 0.0000 -1.0000
vn 1.0000 0.0000 0.0000
vn 0.0000 0.0000 1.0000
vn 0.0000 -1.0000 0.0000
vn 0.0000 1.0000 0.0000
s off
f 26//19 27//19 25//19
f 28//20 31//20 27//20
f 32//21 29//21 31//21
f 30//22 25//22 29//22
f 31//23 25//23 27//23
f 28//24 30//24 32//24
f 26//19 28//19 27//19
f 28//20 32//20 31//20
f 32//21 30//21 29//21
f 30//22 26//22 25//22
f 31//23 29//23 25//23
f 28//24 26//24 30//24
o Cube.004_Cube.005
v 18.321472 -0.904872 24.305910
v 18.321472 10.975128 24.305910
v 18.321472 -0.904872 16.545912
v 18.321472 10.975128 16.545912
v 26.113422 -0.904872 24.305910
v 26.113422 10.975128 24.305910
v 26.113422 -0.904872 16.545912
v 26.113422 10.975128 16.545912
vn -1.0000 0.0000 0.0000
vn 0.0000 0.0000 -1.0000
vn 1.0000 0.0000 0.0000
vn 0.0000 0.0000 1.0000
vn 0.0000 -1.0000 0.0000
vn 0.0000 1.0000 0.0000
s off
f 34//25 35//25 33//25
f 36//26 39//26 35//26
f 40//27 37//27 39//27
f 38//28 33//28 37//28
f 39//29 33//29 35//29
f 36//30 38//30 40//30
f 34//25 36//25 35//25
f 36//26 40//26 39//26
f 40//27 38//27 37//27
f 38//28 34//28 33//28
f 39//29 37//29 33//29
f 36//30 34//30 38//30
o Cube.005_Cube.006
v -27.081741 -0.904872 24.305910
v -27.081741 10.975128 24.305910
v -27.081741 -0.904872 16.545912
v -27.081741 10.975128 16.545912
v -19.289791 -0.904872 24.305910
v -19.289791 10.975128 24.305910
v -19.289791 -0.904872 16.545912
v -19.289791 10.975128 16.545912
vn -1.0000 0.0000 0.0000
vn 0.0000 0.0000 -1.0000
vn 1.0000 0.0000 0.0000
vn 0.0000 0.0000 1.0000
vn 0.0000 -1.0000 0.0000
vn 0.0000 1.0000 0.0000
s off
f 42//31 43//31 41//31
f 44//32 47//32 43//32
f 48//33 45//33 47//33
f 46//34 41//34 45//34
f 47//35 41//35 43//35
f 44//36 46//36 48//36
f 42//31 44//31 43//31
f 44//32 48//32 47//32
f 48//33 46//33 45//33
f 46//34 42//34 41//34
f 47//35 45//35 41//35
f 44//36 42//36 46//36
o Cube.006_Cube.007
v -27.081741 -0.904872 -30.329000
v -27.081741 10.975128 -30.329000
v -27.081741 -0.904872 -38.088997
v -27.081741 10.975128 -38.088997
v -19.289791 -0.904872 -30.329000
v -19.289791 10.975128 -30.329000
v -19.289791 -0.904872 -38.088997
v -19.289791 10.975128 -38.088997
vn -1.0000 0.0000 0.0000
vn 0.0000 0.0000 -1.0000
vn 1.0000 0.0000 0.0000
vn 0.0000 0.0000 1.0000
vn 0.0000 -1.0000 0.0000
vn 0.0000 1.0000 0.0000
s off
f 50//37 51//37 49//37
f 52//38 55//38 51//38
f 56//39 53//39 55//39
f 54//40 49//40 53//40
f 55//41 49//41 51//41
f 52//42 54//42 56//42
f 50//37 52//37 51//37
f 52//38 56//38 55//38
f 56//39 54//39 53//39
f 54//40 50//40 49//40
f 55//41 53//41 49//41
f 52//42 50//42 54//42
o Cube.007_Cube.008
v -3.653879 0.135820 22.780392
v -3.653879 8.555820 22.780392
v -19.773878 0.135820 22.780392
v -19.773878 8.555820 22.780392
v -3.653879 0.135820 18.140392
v -3.653879 8.555820 18.140392
v -19.773878 0.135820 18.140392
v -19.773878 8.555820 18.140392
vn 0.0000 0.0000 1.0000
vn -1.0000 0.0000 0.0000
vn 0.0000 0.0000 -1.0000
vn 1.0000 0.0000 0.0000
vn 0.0000 -1.0000 0.0000
vn 0.0000 1.0000 0.0000
s off
f 58//43 59//43 57//43
f 60//44 63//44 59//44
f 64//45 61//45 63//45
f 62//46 57//46 61//46
f 63//47 57//47 59//47
f 60//48 62//48 64//48
f 58//43 60//43 59//43
f 60//44 64//44 63//44
f 64//45 62//45 61//45
f 62//46 58//46 57//46
f 63//47 61//47 57//47
f 60//48 58//48 62//48
o Cube.008_Cube.009
v 19.046570 0.135820 22.780392
v 19.046570 8.555820 22.780392
v 2.926571 0.135820 22.780392
v 2.926571 8.555820 22.780392
v 19.046570 0.135820 18.140392
v 19.046570 8.555820 18.140392
v 2.926571 0.135820 18.140392
v 2.926571 8.555820 18.140392
vn 0.0000 0.0000 1.0000
vn -1.0000 0.0000 0.0000
vn 0.0000 0.0000 -1.0000
vn 1.0000 0.0000 0.0000
vn 0.0000 -1.0000 0.0000
vn 0.0000 1.0000 0.0000
s off
f 66//49 67//49 65//49
f 68//50 71//50 67//50
f 72//51 69//51 71//51
f 70//52 65//52 69//52
f 71//53 65//53 67//53
f 68//54 70//54 72//54
f 66//49 68//49 67//49
f 68//50 72//50 71//50
f 72//51 70//51 69//51
f 70//52 66//52 65//52
f 71//53 69//53 65//53
f 68//54 66//54 70//54
o Cube.009_Cube.010
v 2.968063 6.917699 22.780392
v 2.968063 8.537700 22.780392
v -4.051937 6.917699 22.780392
v -4.051937 8.537700 22.780392
v 2.968063 6.917699 18.140392
v 2.968063 8.537700 18.140392
v -4.051937 6.917699 18.140392
v -4.051937 8.537700 18.140392
vn 0.0000 0.0000 1.0000
vn -1.0000 0.0000 0.0000
vn 0.0000 0.0000 -1.0000
vn 1.0000 0.0000 0.0000
vn 0.0000 -1.0000 0.0000
vn 0.0000 1.0000 0.0000
s off
f 74//55 75//55 73//55
f 76//56 79//56 75//56
f 80//57 77//57 79//57
f 78//58 73//58 77//58
f 79//59 73//59 75//59
f 76//60 78//60 80//60
f 74//55 76//55 75//55
f 76//56 80//56 79//56
f 80//57 78//57 77//57
f 78//58 74//58 73//58
f 79//59 77//59 73//59
f 76//60 74//60 78//60
o Cube.010_Cube.011
v -21.986336 8.631609 17.988276
v -21.986336 10.091610 17.988276
v -21.986336 8.631609 -32.231724
v -21.986336 10.091610 -32.231724
v -20.926338 8.631609 17.988276
v -20.926338 10.091610 17.988276
v -20.926338 8.631609 -32.231724
v -20.926338 10.091610 -32.231724
vn -1.0000 0.0000 0.0000
vn 0.0000 0.0000 -1.0000
vn 1.0000 0.0000 0.0000
vn 0.0000 0.0000 1.0000
vn 0.0000 -1.0000 0.0000
vn 0.0000 1.0000 0.0000
s off
f 82//61 83//61 81//61
f 84//62 87//62 83//62
f 88//63 85//63 87//63
f 86//64 81//64 85//64
f 87//65 81//65 83//65
f 84//66 86//66 88//66
f 82//61 84//61 83//61
f 84//62 88//62 87//62
f 88//63 86//63 85//63
f 86//64 82//64 81//64
f 87//65 85//65 81//65
f 84//66 82//66 86//66
o Cube.011_Cube.012
v -25.743187 8.631609 17.988276
v -25.743187 10.091610 17.988276
v -25.743187 8.631609 -32.231724
v -25.743187 10.091610 -32.231724
v -24.683189 8.631609 17.988276
v -24.683189 10.091610 17.988276
v -24.683189 8.631609 -32.231724
v -24.683189 10.091610 -32.231724
vn -1.0000 0.0000 0.0000
vn 0.0000 0.0000 -1.0000
vn 1.0000 0.0000 0.0000
vn 0.0000 0.0000 1.0000
vn 0.0000 -1.0000 0.0000
vn 0.0000 1.0000 0.0000
s off
f 90//67 91//67 89//67
f 92//68 95//68 91//68
f 96//69 93//69 95//69
f 94//70 89//70 93//70
f 95//71 89//71 91//71
f 92//72 94//72 96//72
f 90//67 92//67 91//67
f 92//68 96//68 95//68
f 96//69 94//69 93//69
f 94//70 90//70 89//70
f 95//71 93//71 89//71
f 92//72 90//72 94//72
o Cube.012_Cube.013
v 18.328093 8.631609 -35.889477
v 18.328093 10.091610 -35.889477
v -19.351904 8.631609 -35.889477
v -19.351904 10.091610 -35.889477
v 18.328093 8.631609 -36.949474
v 18.328093 10.091610 -36.949474
v -19.351904 8.631609 -36.949474
v -19.351904 10.091610 -36.949474
vn 0.0000 0.0000 1.0000
vn -1.0000 0.0000 0.0000
vn 0.0000 0.0000 -1.0000
vn 1.0000 0.0000 0.0000
vn 0.0000 -1.0000 0.0000
vn 0.0000 1.0000 0.0000
s off
f 98//73 99//73 97//73
f 100//74 103//74 99//74
f 104//75 101//75 103//75
f 102//76 97//76 101//76
f 103//77 97//77 99//77
f 100//78 102//78 104//78
f 98//73 100//73 99//73
f 100//74 104//74 103//74
f 104//75 102//75 101//75
f 102//76 98//76 97//76
f 103//77 101//77 97//77
f 100//78 98//78 102//78
o Cube.013_Cube.014
v 23.433994 8.631609 17.988276
v 23.433994 10.091610 17.988276
v 23.433994 8.631609 -32.231724
v 23.433994 10.091610 -32.231724
v 24.493992 8.631609 17.988276
v 24.493992 10.091610 17.988276
v 24.493992 8.631609 -32.231724
v 24.493992 10.091610 -32.231724
vn -1.0000 0.0000 0.0000
vn 0.0000 0.0000 -1.0000
vn 1.0000 0.0000 0.0000
vn 0.0000 0.0000 1.0000
vn 0.0000 -1.0000 0.0000
vn 0.0000 1.0000 0.0000
s off
f 106//79 107//79 105//79
f 108//80 111//80 107//80
f 112//81 109//81 111//81
f 110//82 105//82 109//82
f 111//83 105//83 107//83
f 108//84 110//84 112//84
f 106//79 108//79 107//79
f 108//80 112//80 111//80
f 112//81 110//81 109//81
f 110//82 106//82 105//82
f 111//83 109//83 105//83
f 108//84 106//84 110//84
o Cube.014_Cube.015
v 19.857410 8.631609 17.988276
v 19.857410 10.091610 17.988276
v 19.857410 8.631609 -32.231724
v 19.857410 10.091610 -32.231724
v 20.917412 8.631609 17.988276
v 20.917412 10.091610 17.988276
v 20.917412 8.631609 -32.231724
v 20.917412 10.091610 -32.231724
vn -1.0000 0.0000 0.0000
vn 0.0000 0.0000 -1.0000
vn 1.0000 0.0000 0.0000
vn 0.0000 0.0000 1.0000
vn 0.0000 -1.0000 0.0000
vn 0.0000 1.0000 0.0000
s off
f 114//85 115//85 113//85
f 116//86 119//86 115//86
f 120//87 117//87 119//87
f 118//88 113//88 117//88
f 119//89 113//89 115//89
f 116//90 118//90 120//90
f 114//85 116//85 115//85
f 116//86 120//86 119//86
f 120//87 118//87 117//87
f 118//88 114//88 113//88
f 119//89 117//89 113//89
f 116//90 114//90 118//90
o Cube.015_Cube.016
v 18.328093 8.631609 -32.097805
v 18.328093 10.091610 -32.097805
v -19.351904 8.631609 -32.097805
v -19.351904 10.091610 -32.097805
v 18.328093 8.631609 -33.157803
v 18.328093 10.091610 -33.157803
v -19.351904 8.631609 -33.157803
v -19.351904 10.091610 -33.157803
vn 0.0000 0.0000 1.0000
vn -1.0000 0.0000 0.0000
vn 0.0000 0.0000 -1.0000
vn 1.0000 0.0000 0.0000
vn 0.0000 -1.0000 0.0000
vn 0.0000 1.0000 0.0000
s off
f 122//91 123//91 121//91
f 124//92 127//92 123//92
f 128//93 125//93 127//93
f 126//94 121//94 125//94
f 127//95 121//95 123//95
f 124//96 126//96 128//96
f 122//91 124//91 123//91
f 124//92 128//92 127//92
f 128//93 126//93 125//93
f 126//94 122//94 121//94
f 127//95 125//95 121//95
f 124//96 122//96 126//96
o Cube.016_Cube.017
v 18.328093 8.631609 19.217882
v 18.328093 10.091610 19.217882
v -19.351904 8.631609 19.217884
v -19.351904 10.091610 19.217884
v 18.328093 8.631609 18.157883
v 18.328093 10.091610 18.157883
v -19.351904 8.631609 18.157885
v -19.351904 10.091610 18.157885
vn 0.0000 0.0000 1.0000
vn -1.0000 0.0000 0.0000
vn -0.0000 0.0000 -1.0000
vn 1.0000 0.0000 0.0000
vn 0.0000 -1.0000 0.0000
vn 0.0000 1.0000 0.0000
s off
f 130//97 131//97 129//97
f 132//98 135//98 131//98
f 136//99 133//99 135//99
f 134//100 129//100 133//100
f 135//101 129//101 131//101
f 132//102 134//102 136//102
f 130//97 132//97 131//97
f 132//98 136//98 135//98
f 136//99 134//99 133//99
f 134//100 130//100 129//100
f 135//101 133//101 129//101
f 132//102 130//102 134//102
o Cube.017_Cube.018
v 18.328093 8.631609 22.664146
v 18.328093 10.091610 22.664146
v -19.351904 8.631609 22.664148
v -19.351904 10.091610 22.664148
v 18.328093 8.631609 21.604147
v 18.328093 10.091610 21.604147
v -19.351904 8.631609 21.604149
v -19.351904 10.091610 21.604149
vn 0.0000 0.0000 1.0000
vn -1.0000 0.0000 0.0000
vn 0.0000 0.0000 -1.0000
vn 1.0000 0.0000 0.0000
vn 0.0000 -1.0000 0.0000
vn 0.0000 1.0000 0.0000
s off
f 138//103 139//103 137//103
f 140//104 143//104 139//104
f 144//105 141//105 143//105
f 142//106 137//106 141//106
f 143//107 137//107 139//107
f 140//108 142//108 144//108
f 138//103 140//103 139//103
f 140//104 144//104 143//104
f 144//105 142//105 141//105
f 142//106 138//106 137//106
f 143//107 141//107 137//107
f 140//108 138//108 142//108
