# Blender v2.79 (sub 0) OBJ File: ''
# www.blender.org
o Cube.001
v 12.356954 -4.768425 -13.680155
v 12.356954 -4.768425 15.402080
v -14.626170 -4.768425 15.402077
v -14.626163 -4.768425 -13.680161
v 12.356960 2.750211 -13.680148
v 12.356945 2.750211 15.402088
v -14.626173 2.750211 15.402075
v -14.626167 2.750211 -13.680156
vt 0.286566 -2.408318
vt -2.849494 0.727743
vt 0.286566 0.727742
vt -2.849495 0.727742
vt 0.286565 -2.408319
vt 0.286566 0.727742
vt 0.715649 3.631507
vt -2.420410 0.495447
vt 0.715650 0.495447
vt 0.286565 3.631507
vt -2.849495 0.495447
vt 0.286566 0.495447
vt 0.715650 0.495447
vt 3.851710 3.631507
vt 3.851711 0.495447
vt 0.286566 -2.640614
vt -2.849495 0.495447
vt 0.286566 0.495447
vt -2.849495 -2.408318
vt -2.849495 -2.408318
vt -2.420411 3.631507
vt -2.849495 3.631507
vt 0.715650 3.631507
vt -2.849494 -2.640614
vn 0.0000 -1.0000 0.0000
vn 0.0000 1.0000 -0.0000
vn 1.0000 -0.0000 0.0000
vn -0.0000 -0.0000 1.0000
vn -1.0000 -0.0000 -0.0000
vn 0.0000 0.0000 -1.0000
s off
f 2/1/1 4/2/1 1/3/1
f 8/4/2 6/5/2 5/6/2
f 5/7/3 2/8/3 1/9/3
f 6/10/4 3/11/4 2/12/4
f 3/13/5 8/14/5 4/15/5
f 1/16/6 8/17/6 5/18/6
f 2/1/1 3/19/1 4/2/1
f 8/4/2 7/20/2 6/5/2
f 5/7/3 6/21/3 2/8/3
f 6/10/4 7/22/4 3/11/4
f 3/13/5 7/23/5 8/14/5
f 1/16/6 4/24/6 8/17/6
o Cube.002
v 6.174854 -20.251743 17.944597
v 6.174854 -20.251743 31.469055
v -6.373428 -20.251743 31.469053
v -6.373425 -20.251743 17.944593
v 6.174857 19.644688 17.944599
v 6.174850 19.644688 31.469059
v -6.373429 19.644688 31.469051
v -6.373426 19.644688 17.944595
vt 1.395071 -1.965005
vt -1.068915 0.498982
vt 1.395071 0.498982
vt -1.068916 0.498982
vt 1.395070 -1.965005
vt 1.395072 0.498982
vt 0.646587 3.459829
vt -1.817400 0.995841
vt 0.646587 0.995841
vt 1.395070 3.459829
vt -1.068916 0.995841
vt 1.395071 0.995841
vt 0.646587 0.995841
vt 3.110574 3.459829
vt 3.110574 0.995841
vt 1.395071 -1.468146
vt -1.068916 0.995841
vt 1.395072 0.995841
vt -1.068916 -1.965005
vt -1.068917 -1.965005
vt -1.817400 3.459829
vt -1.068917 3.459829
vt 0.646587 3.459829
vt -1.068915 -1.468146
vn 0.0000 -1.0000 0.0000
vn 0.0000 1.0000 -0.0000
vn 1.0000 -0.0000 0.0000
vn -0.0000 -0.0000 1.0000
vn -1.0000 -0.0000 -0.0000
vn 0.0000 0.0000 -1.0000
s off
f 10/25/7 12/26/7 9/27/7
f 16/28/8 14/29/8 13/30/8
f 13/31/9 10/32/9 9/33/9
f 14/34/10 11/35/10 10/36/10
f 11/37/11 16/38/11 12/39/11
f 9/40/12 16/41/12 13/42/12
f 10/25/7 11/43/7 12/26/7
f 16/28/8 15/44/8 14/29/8
f 13/31/9 14/45/9 10/32/9
f 14/34/10 15/46/10 11/35/10
f 11/37/11 15/47/11 16/38/11
f 9/40/12 12/48/12 16/41/12
o Cube.000_Cube.003
v 15.156854 -4.467347 62.629311
v 15.156854 -4.467347 83.633766
v -12.951428 -4.467347 83.633766
v -12.951422 -4.467347 62.629307
v 15.156860 2.449133 62.629314
v 15.156844 2.449133 83.633774
v -12.951431 2.449133 83.633766
v -12.951426 2.449133 62.629311
vt 0.860975 -3.290139
vt -2.782483 0.353320
vt 0.860975 0.353320
vt -2.782484 0.353320
vt 0.860974 -3.290139
vt 0.860976 0.353320
vt 0.434231 4.219817
vt -3.209228 0.576357
vt 0.434231 0.576357
vt 0.860974 4.219817
vt -2.782484 0.576357
vt 0.860975 0.576357
vt 0.434231 0.576357
vt 4.077690 4.219817
vt 4.077690 0.576357
vt 0.860975 -3.067101
vt -2.782484 0.576357
vt 0.860976 0.576357
vt -2.782484 -3.290139
vt -2.782485 -3.290139
vt -3.209228 4.219817
vt -2.782485 4.219817
vt 0.434231 4.219817
vt -2.782483 -3.067101
vn 0.0000 -1.0000 0.0000
vn 0.0000 1.0000 -0.0000
vn 1.0000 -0.0000 0.0000
vn 0.0000 -0.0000 1.0000
vn -1.0000 -0.0000 -0.0000
vn 0.0000 0.0000 -1.0000
s off
f 18/49/13 20/50/13 17/51/13
f 24/52/14 22/53/14 21/54/14
f 21/55/15 18/56/15 17/57/15
f 22/58/16 19/59/16 18/60/16
f 19/61/17 24/62/17 20/63/17
f 17/64/18 24/65/18 21/66/18
f 18/49/13 19/67/13 20/50/13
f 24/52/14 23/68/14 22/53/14
f 21/55/15 22/69/15 18/56/15
f 22/58/16 23/70/16 19/59/16
f 19/61/17 23/71/17 24/62/17
f 17/64/18 20/72/18 24/65/18
