# Blender v2.79 (sub 0) OBJ File: ''
# www.blender.org
o castle_floor.001
v -26.287537 0.124375 125.538986
v -26.287537 -23.844019 46.125130
v -26.287537 -23.844048 125.538994
v -26.287537 0.124400 46.125130
v 24.372459 -23.844019 46.125130
v 24.372459 0.124400 46.125130
v 24.372459 -23.844048 125.538994
v 24.372459 0.124375 125.538986
vt 0.605738 5.792805
vt 5.807517 0.591026
vt 0.605738 0.591026
vt 0.463976 5.792805
vt 5.665755 0.591026
vt 0.463976 0.591026
vt 0.605738 5.792805
vt -4.596041 0.591026
vt 0.605738 0.591026
vt 0.463976 5.792805
vt -4.737803 0.591026
vt 0.463976 0.591026
vt 5.665755 0.519659
vt 0.463976 -4.682119
vt 0.463976 0.519659
vt -4.737803 0.519659
vt 0.463976 -4.682119
vt 0.463976 0.519659
vt 5.807517 5.792805
vt 5.665755 5.792805
vt -4.596041 5.792805
vt -4.737803 5.792805
vt 5.665755 -4.682119
vt -4.737803 -4.682119
vn -1.0000 0.0000 0.0000
vn 0.0000 0.0000 -1.0000
vn 1.0000 0.0000 0.0000
vn 0.0000 0.0000 1.0000
vn 0.0000 -1.0000 -0.0000
vn 0.0000 1.0000 0.0000
s 1
f 1/1/1 2/2/1 3/3/1
f 4/4/2 5/5/2 2/6/2
f 6/7/3 7/8/3 5/9/3
f 8/10/4 3/11/4 7/12/4
f 5/13/5 3/14/5 2/15/5
f 4/16/6 8/17/6 6/18/6
f 1/1/1 4/19/1 2/2/1
f 4/4/2 6/20/2 5/5/2
f 6/7/3 8/21/3 7/8/3
f 8/10/4 1/22/4 3/11/4
f 5/13/5 7/23/5 3/14/5
f 4/16/6 1/24/6 8/17/6
