# Blender v2.79 (sub 0) OBJ File: ''
# www.blender.org
o Cube_Cube.001
v -2.689327 -1.497253 55.432362
v -2.689327 138.502747 55.432362
v -2.689327 -1.497253 -44.377628
v -2.689327 138.502747 -44.377628
v 73.553650 -1.497253 55.432362
v 73.553650 138.502747 55.432362
v 73.553650 -1.497253 -44.377628
v 73.553650 138.502747 -44.377628
vn -1.0000 0.0000 0.0000
vn 0.0000 0.0000 -1.0000
vn 1.0000 0.0000 0.0000
vn 0.0000 0.0000 1.0000
vn 0.0000 -1.0000 0.0000
vn 0.0000 1.0000 0.0000
s off
f 2//1 3//1 1//1
f 4//2 7//2 3//2
f 8//3 5//3 7//3
f 6//4 1//4 5//4
f 7//5 1//5 3//5
f 4//6 6//6 8//6
f 2//1 4//1 3//1
f 4//2 8//2 7//2
f 8//3 6//3 5//3
f 6//4 2//4 1//4
f 7//5 5//5 1//5
f 4//6 2//6 6//6
o Cube.001_Cube.002
v -55.796108 -1.497253 55.457588
v -55.796108 138.502747 55.457588
v -55.796108 -1.497253 -79.152397
v -55.796108 138.502747 -79.152397
v 5.586872 -1.497253 55.457588
v 5.586872 138.502747 55.457588
v 5.586872 -1.497253 -79.152397
v 5.586872 138.502747 -79.152397
vn -1.0000 0.0000 0.0000
vn 0.0000 0.0000 -1.0000
vn 1.0000 0.0000 0.0000
vn 0.0000 0.0000 1.0000
vn 0.0000 -1.0000 0.0000
vn 0.0000 1.0000 0.0000
s off
f 10//7 11//7 9//7
f 12//8 15//8 11//8
f 16//9 13//9 15//9
f 14//10 9//10 13//10
f 15//11 9//11 11//11
f 12//12 14//12 16//12
f 10//7 12//7 11//7
f 12//8 16//8 15//8
f 16//9 14//9 13//9
f 14//10 10//10 9//10
f 15//11 13//11 9//11
f 12//12 10//12 14//12
o Cube.002_Cube.003
v -54.102898 40.144680 110.661026
v -54.102898 129.684677 110.661026
v -54.102898 40.144680 54.091038
v -54.102898 129.684677 54.091038
v 4.560083 40.144680 110.661026
v 4.560083 129.684677 110.661026
v 4.560083 40.144680 54.091038
v 4.560083 129.684677 54.091038
vn -1.0000 0.0000 0.0000
vn 0.0000 0.0000 -1.0000
vn 1.0000 0.0000 0.0000
vn 0.0000 0.0000 1.0000
vn 0.0000 -1.0000 0.0000
vn 0.0000 1.0000 0.0000
s off
f 18//13 19//13 17//13
f 20//14 23//14 19//14
f 24//15 21//15 23//15
f 22//16 17//16 21//16
f 23//17 17//17 19//17
f 20//18 22//18 24//18
f 18//13 20//13 19//13
f 20//14 24//14 23//14
f 24//15 22//15 21//15
f 22//16 18//16 17//16
f 23//17 21//17 17//17
f 20//18 18//18 22//18
o Cube.003_Cube.004
v -51.325081 -2.420807 107.965546
v -51.325081 43.959194 107.965546
v -51.325081 -2.420807 104.285538
v -51.325081 43.959194 104.285538
v -45.485085 -2.420807 107.965546
v -45.485085 43.959194 107.965546
v -45.485085 -2.420807 104.285538
v -45.485085 43.959194 104.285538
vn -1.0000 0.0000 0.0000
vn 0.0000 0.0000 -1.0000
vn 1.0000 0.0000 0.0000
vn 0.0000 0.0000 1.0000
vn 0.0000 -1.0000 0.0000
vn 0.0000 1.0000 0.0000
s off
f 26//19 27//19 25//19
f 28//20 31//20 27//20
f 32//21 29//21 31//21
f 30//22 25//22 29//22
f 31//23 25//23 27//23
f 28//24 30//24 32//24
f 26//19 28//19 27//19
f 28//20 32//20 31//20
f 32//21 30//21 29//21
f 30//22 26//22 25//22
f 31//23 29//23 25//23
f 28//24 26//24 30//24
o Cube.004_Cube.005
v -0.626410 -2.420807 107.965546
v -0.626410 43.959194 107.965546
v -0.626410 -2.420807 104.285538
v -0.626410 43.959194 104.285538
v 5.213591 -2.420807 107.965546
v 5.213591 43.959194 107.965546
v 5.213591 -2.420807 104.285538
v 5.213591 43.959194 104.285538
vn -1.0000 0.0000 0.0000
vn 0.0000 0.0000 -1.0000
vn 1.0000 0.0000 0.0000
vn 0.0000 0.0000 1.0000
vn 0.0000 -1.0000 0.0000
vn 0.0000 1.0000 0.0000
s off
f 34//25 35//25 33//25
f 36//26 39//26 35//26
f 40//27 37//27 39//27
f 38//28 33//28 37//28
f 39//29 33//29 35//29
f 36//30 38//30 40//30
f 34//25 36//25 35//25
f 36//26 40//26 39//26
f 40//27 38//27 37//27
f 38//28 34//28 33//28
f 39//29 37//29 33//29
f 36//30 34//30 38//30
