# Blender v2.79 (sub 0) OBJ File: ''
# www.blender.org
o Cube_Cube.001
v -191.060471 -5.335544 238.120880
v -191.060471 -74.469971 -161.879120
v -191.060471 -74.470032 238.120880
v -191.060471 -5.335479 -161.879120
v 208.939529 -74.469971 -161.879120
v 208.939529 -5.335479 -161.879120
v 208.939529 -74.470032 238.120880
v 208.939529 -5.335544 238.120880
vt 4.043071 9.638827
vt 18.255348 -4.573450
vt 4.043071 -4.573450
vt -2.633748 9.638827
vt 11.578529 -4.573450
vt -2.633748 -4.573450
vt 4.043071 9.638827
vt -10.169205 -4.573450
vt 4.043071 -4.573450
vt -2.633748 9.638827
vt -16.846024 -4.573450
vt -2.633748 -4.573450
vt 11.578529 5.727755
vt -2.633748 -8.484521
vt -2.633748 5.727755
vt -16.846024 5.727755
vt -2.633748 -8.484521
vt -2.633748 5.727755
vt 18.255348 9.638827
vt 11.578529 9.638827
vt -10.169205 9.638827
vt -16.846024 9.638827
vt 11.578529 -8.484521
vt -16.846024 -8.484521
vn -1.0000 0.0000 0.0000
vn 0.0000 0.0000 -1.0000
vn 1.0000 0.0000 0.0000
vn 0.0000 0.0000 1.0000
vn 0.0000 -1.0000 -0.0000
vn 0.0000 1.0000 0.0000
s 1
f 1/1/1 2/2/1 3/3/1
f 4/4/2 5/5/2 2/6/2
f 6/7/3 7/8/3 5/9/3
f 8/10/4 3/11/4 7/12/4
f 5/13/5 3/14/5 2/15/5
f 4/16/6 8/17/6 6/18/6
f 1/1/1 4/19/1 2/2/1
f 4/4/2 6/20/2 5/5/2
f 6/7/3 8/21/3 7/8/3
f 8/10/4 1/22/4 3/11/4
f 5/13/5 7/23/5 3/14/5
f 4/16/6 1/24/6 8/17/6
