# Blender v2.79 (sub 0) OBJ File: ''
# www.blender.org
v 1.616781 -1.616781 1.616781
v -1.616780 -1.616781 1.616781
v -1.616781 1.616780 1.616781
v 1.616781 1.616781 1.616781
v 1.616781 -1.616780 -1.616781
v 1.616780 1.616781 -1.616781
v -1.616781 1.616780 -1.616781
v -1.616781 -1.616781 -1.616781
vt 0.499512 0.333984
vt 0.749512 0.666016
vt 0.749512 0.333984
vt 0.000488 0.333984
vt 0.250488 0.666016
vt 0.250488 0.333984
vt 0.998535 0.333984
vt 0.499512 0.666016
vt 0.250488 0.999349
vt 0.499512 0.999349
vt 0.250488 0.000651
vt 0.000488 0.666016
vt 0.998535 0.666016
vt 0.499512 0.000651
vn 0.0000 0.0000 -1.0000
vn 0.0000 -0.0000 1.0000
vn -1.0000 0.0000 0.0000
vn 0.0000 -1.0000 -0.0000
vn 1.0000 0.0000 0.0000
vn -0.0000 1.0000 0.0000
s off
f 2/1/1 4/2/1 1/3/1
f 5/4/2 7/5/2 8/6/2
f 4/2/3 5/7/3 1/3/3
f 3/8/4 6/9/4 4/10/4
f 2/1/5 7/5/5 3/8/5
f 2/1/6 5/11/6 8/6/6
f 2/1/1 3/8/1 4/2/1
f 5/4/2 6/12/2 7/5/2
f 4/2/3 6/13/3 5/7/3
f 3/8/4 7/5/4 6/9/4
f 2/1/5 8/6/5 7/5/5
f 2/1/6 1/14/6 5/11/6
