# Blender v2.79 (sub 0) OBJ File: ''
# www.blender.org
o WindMill
v -34.972015 67.319473 41.320717
v -35.092342 176.334427 -46.913445
v -34.972004 67.319489 -47.211040
v 0.027984 215.295074 41.023178
v -35.092358 176.334412 41.023182
v 35.148335 176.334412 41.023197
v 35.027985 67.319473 41.320736
v 35.148350 176.334427 -46.913425
v -37.390488 173.369736 43.541927
v -37.390461 175.369736 -49.432255
v -37.390461 173.369751 -49.432255
v 37.446453 173.369736 43.541992
v 37.446484 175.369736 -49.432243
v 37.446453 175.369720 43.541992
v 0.027975 215.295059 -49.432247
v 0.027999 217.295090 -49.432247
v 0.027998 215.295090 -46.913437
v 0.027984 217.295074 43.541985
v 0.027984 215.295074 43.541985
v -37.390488 175.369720 43.541977
v 37.446484 173.369751 -49.432243
v 35.027996 67.319489 -47.211021
v 52.272705 40.721996 10.567623
v 56.105122 40.864857 -7.310767
v 54.712677 40.838909 10.900223
v 53.665150 40.747936 -7.643367
v 56.506527 0.546547 -7.252862
v 3.768902 24.429090 53.998325
v -13.891461 24.244497 49.463409
v -14.151731 24.276798 52.426926
v 3.761317 42.015015 50.823162
v 3.501047 42.047329 53.786686
v -13.916526 42.012856 49.269920
v 52.700054 0.504893 10.521256
v 54.066559 0.217909 -7.585454
v 4.029172 24.396793 51.034817
v 27.130051 67.802811 31.730417
v 27.130041 53.712952 38.908329
v 27.130041 67.802811 38.908337
v 33.184673 53.712952 38.908340
v 33.184681 67.802811 31.730423
v 33.184673 67.802811 38.908348
v 33.184677 53.712955 31.730417
v 27.130049 53.712955 31.730410
v -33.157818 67.802811 31.730398
v -33.157825 53.712952 38.908318
v -33.157825 67.802811 38.908321
v -27.954374 67.802811 31.730412
v -33.157818 53.712955 31.730398
v -27.954382 67.802811 38.908337
v -27.954382 53.712952 38.908333
v 2.767212 53.712952 38.908325
v 2.767214 67.802811 31.730413
v 2.767212 67.802811 38.908337
v -2.709892 53.712952 38.908333
v -2.709890 67.802811 31.730413
v -2.709892 67.802811 38.908337
v -2.709890 53.712955 31.730410
v 33.184677 53.712959 0.367649
v 33.184689 67.802818 -7.938785
v 33.184677 67.802818 0.367652
v 27.130051 53.712959 0.367651
v 27.130051 67.802818 0.367651
v 27.130060 67.802818 -7.938783
v 27.130056 53.712959 -7.938786
v -33.157806 67.802818 -7.938799
v -33.157818 53.712959 0.367632
v -33.157818 67.802818 0.367635
v -27.954365 67.802818 -7.938798
v -33.157810 53.712959 -7.938803
v -27.954374 53.712959 0.367636
v -27.954374 67.802818 0.367640
v 2.767229 67.802826 -43.608013
v -2.709875 53.712971 -43.608017
v -2.709875 67.802826 -43.607998
v 2.767227 53.712971 -35.462425
v 2.767227 67.802826 -35.462421
v -2.709877 53.712971 -35.462418
v -2.709877 67.802826 -35.462414
v 33.184689 67.802826 -43.607986
v 27.130060 53.712971 -43.608006
v 27.130060 67.802826 -43.607998
v 33.184689 53.712971 -35.462414
v 33.184689 67.802826 -35.462402
v 27.130060 53.712971 -35.462421
v 27.130060 67.802826 -35.462418
v -27.954365 67.802826 -43.608009
v -33.157810 53.712971 -43.608032
v -33.157810 67.802826 -43.608028
v -27.954365 53.712971 -35.462421
v -27.954365 67.802826 -35.462418
v -33.157810 53.712971 -35.462433
v -33.157810 67.802826 -35.462429
v -14.349988 42.045143 52.218227
v -27.954376 53.712955 31.730408
v 2.767214 53.712955 31.730410
v 33.184685 53.712959 -7.938788
v -27.954367 53.712959 -7.938802
v 2.767229 53.712971 -43.608017
v 33.184689 53.712971 -43.607998
v -27.954365 53.712971 -43.608013
v 36.956371 52.951855 41.587318
v 10.188846 -0.061962 54.769905
v 37.375763 -0.061959 42.031811
v 54.442165 -0.061954 17.330734
v 53.989258 52.951859 17.166832
v 44.266018 -0.061942 -39.769802
v 56.529934 52.951866 -12.498363
v 57.004101 -0.061948 -12.582881
v 19.641043 -0.061939 -56.945312
v 43.897625 52.951862 -39.459522
v -37.459503 -0.061941 -46.769161
v -10.170671 52.929012 -59.031876
v -10.272572 -0.061938 -59.507263
v -54.182110 52.951874 -21.980278
v -37.149231 52.951874 -46.400761
v -57.196949 -0.061952 7.769422
v -54.634998 -0.061946 -22.144190
v -44.090466 52.951859 34.646084
v -56.722775 52.951855 7.684932
v -19.833883 -0.061961 52.131844
v -19.669987 52.951851 51.678963
v -20.344940 54.763050 53.543976
v -0.096423 77.860756 -2.406717
v -45.607506 54.763054 35.923767
v 38.234058 54.763054 43.104362
v 55.854286 54.763058 17.841784
v 58.482563 54.763065 -12.846351
v 45.414661 54.763069 -40.737202
v 20.152088 54.763081 -58.357452
v -10.536060 54.763084 -60.985714
v -38.426910 54.763081 -47.917789
v -56.047131 54.763073 -22.655226
v -58.675411 54.763062 8.032914
v 10.343207 52.951851 56.172264
v 10.343207 54.763050 56.172264
v 55.854286 52.951859 17.841784
v 45.414661 52.951870 -40.737202
v -10.536060 52.951878 -60.985714
v -56.047131 52.951874 -22.655226
v -45.607506 52.951855 35.923767
v -20.344940 52.951851 53.543976
v -58.675404 52.951862 8.032918
v -38.426910 52.951874 -47.917789
v 58.482563 52.951866 -12.846352
v 38.234058 52.951855 43.104362
v 10.104340 52.951851 54.295746
v 20.152088 52.951881 -58.357452
v 56.387917 -0.061950 -6.236085
v 55.135639 0.519310 10.905881
v 55.243404 -0.061952 10.203940
v 19.477140 52.951881 -56.492420
v -44.458855 -0.061958 34.956341
vt 0.786357 0.005169
vt 0.579768 0.284582
vt 0.579430 0.005116
vt 0.100437 0.383934
vt 0.009483 0.283401
vt 0.191643 0.283521
vt 0.191169 0.004074
vt 0.397540 0.284265
vt 0.387139 0.582309
vt 0.392318 0.797101
vt 0.387139 0.797101
vt 0.699646 0.580936
vt 0.694455 0.796247
vt 0.694455 0.580936
vt 0.691899 0.799864
vt 0.543903 0.803669
vt 0.543903 0.799864
vt 0.406395 0.810739
vt 0.545054 0.805202
vt 0.544946 0.810887
vt 0.396952 0.797392
vt 0.544240 0.579978
vt 0.544240 0.797392
vt 0.544481 0.572188
vt 0.692015 0.577123
vt 0.544163 0.577956
vt 0.684390 0.562780
vt 0.543851 0.570392
vt 0.543851 0.562928
vt 0.396947 0.577123
vt 0.392989 0.571354
vt 0.691528 0.797392
vt 0.691528 0.579978
vt 0.397735 0.799864
vt 0.683670 0.810887
vt 0.371570 0.789158
vt 0.383069 0.579981
vt 0.383069 0.795905
vt 0.714028 0.586572
vt 0.703157 0.795544
vt 0.703157 0.581180
vt 0.402372 0.562614
vt 0.393244 0.570078
vt 0.199295 0.441079
vt 0.387410 0.293454
vt 0.387410 0.441079
vt 0.398143 0.004832
vt 0.870941 0.910040
vt 0.863910 0.954391
vt 0.864006 0.910255
vt 0.890012 0.956038
vt 0.896393 0.840015
vt 0.897126 0.956621
vt 0.621597 0.957560
vt 0.614738 0.911843
vt 0.621989 0.911257
vt 0.636651 0.959282
vt 0.645193 0.909503
vt 0.644825 0.960546
vt 0.605363 0.957358
vt 0.612619 0.912390
vt 0.612599 0.958006
vt 0.602535 0.959400
vt 0.594263 0.909052
vt 0.602038 0.910102
vt 0.070005 0.481680
vt 0.012171 0.368212
vt 0.070005 0.367941
vt 0.152739 0.449736
vt 0.102938 0.402921
vt 0.153254 0.403447
vt 0.798272 0.234770
vt 0.818011 0.195723
vt 0.818011 0.234770
vt 0.836353 0.195723
vt 0.855987 0.234770
vt 0.836353 0.234770
vt 0.874435 0.234770
vt 0.855987 0.195723
vt 0.874435 0.195723
vt 0.899655 0.091865
vt 0.919315 0.052779
vt 0.919315 0.091865
vt 0.883791 0.091865
vt 0.899655 0.052779
vt 0.935077 0.091865
vt 0.935077 0.052779
vt 0.834601 0.241019
vt 0.854253 0.280092
vt 0.834601 0.280092
vt 0.818010 0.241019
vt 0.798255 0.280092
vt 0.818010 0.280092
vt 0.870947 0.241019
vt 0.870947 0.280092
vt 0.838070 0.148806
vt 0.860784 0.187809
vt 0.838070 0.187809
vt 0.819756 0.148806
vt 0.819756 0.187809
vt 0.796931 0.187809
vt 0.796931 0.148806
vt 0.879208 0.148806
vt 0.879208 0.187809
vt 0.836058 0.141100
vt 0.858800 0.102061
vt 0.858800 0.141100
vt 0.820324 0.141100
vt 0.836058 0.102061
vt 0.797475 0.102061
vt 0.797475 0.141100
vt 0.874641 0.141100
vt 0.819631 0.047617
vt 0.836199 0.008583
vt 0.836199 0.047617
vt 0.797230 0.008584
vt 0.797230 0.047617
vt 0.858493 0.008583
vt 0.875168 0.047617
vt 0.858493 0.047617
vt 0.903585 0.048473
vt 0.921903 0.009463
vt 0.921903 0.048473
vt 0.881199 0.009463
vt 0.881199 0.048473
vt 0.944179 0.009463
vt 0.962607 0.048473
vt 0.944179 0.048473
vt 0.819836 0.094023
vt 0.835574 0.054977
vt 0.835574 0.094023
vt 0.797426 0.054977
vt 0.797426 0.094023
vt 0.873721 0.094023
vt 0.857878 0.054977
vt 0.873721 0.054977
vt 0.857878 0.094023
vt 0.954839 0.091865
vt 0.009788 0.004014
vt 0.488429 0.384304
vt 0.785661 0.284613
vt 0.392318 0.582309
vt 0.699646 0.796247
vt 0.691899 0.803669
vt 0.397488 0.805202
vt 0.396952 0.579978
vt 0.695972 0.571354
vt 0.695949 0.569493
vt 0.397735 0.803669
vt 0.692513 0.805354
vt 0.371570 0.585378
vt 0.714028 0.790149
vt 0.199295 0.293454
vt 0.870848 0.954274
vt 0.890017 0.840171
vt 0.614346 0.958145
vt 0.637083 0.910556
vt 0.605383 0.911295
vt 0.594276 0.960511
vt 0.011943 0.481680
vt 0.103712 0.449199
vt 0.798272 0.195723
vt 0.883791 0.052779
vt 0.854253 0.241019
vt 0.798255 0.241019
vt 0.860784 0.148806
vt 0.820324 0.102061
vt 0.874641 0.102061
vt 0.819631 0.008584
vt 0.875168 0.008583
vt 0.903585 0.009463
vt 0.962607 0.009463
vt 0.819836 0.054977
vt 0.954839 0.052779
vt 0.000000 0.000000
vt 0.000000 0.000000
vt 0.000000 0.000000
vt 0.000000 0.000000
vt 0.749570 0.992086
vt 0.663103 0.838537
vt 0.749699 0.838459
vt 0.834160 0.838374
vt 0.833914 0.992131
vt 0.992184 0.838605
vt 0.913889 0.992169
vt 0.913458 0.838486
vt 0.085576 0.839211
vt 0.005760 0.992292
vt 0.005309 0.839213
vt 0.256291 0.839167
vt 0.169948 0.992218
vt 0.169913 0.839206
vt 0.340554 0.992185
vt 0.256296 0.992245
vt 0.420719 0.839088
vt 0.340636 0.839107
vt 0.498605 0.992309
vt 0.420656 0.992167
vt 0.578264 0.838647
vt 0.579031 0.992183
vt 0.348286 0.647155
vt 0.182504 0.635674
vt 0.333322 0.563392
vt 0.252597 0.781840
vt 0.167934 0.796621
vt 0.086815 0.767880
vt 0.031685 0.702178
vt 0.016722 0.618414
vt 0.046255 0.538770
vt 0.112411 0.484549
vt 0.197074 0.469787
vt 0.278193 0.498528
vt 0.678534 0.825526
vt 0.757535 0.819200
vt 0.757535 0.825526
vt 0.838969 0.825526
vt 0.921615 0.819200
vt 0.921615 0.825526
vt 0.006416 0.819200
vt 0.085418 0.825526
vt 0.006416 0.825526
vt 0.159559 0.819200
vt 0.159559 0.825526
vt 0.233697 0.825526
vt 0.310266 0.819200
vt 0.310266 0.825526
vt 0.388052 0.825526
vt 0.463409 0.819200
vt 0.463409 0.825526
vt 0.536331 0.825526
vt 0.605612 0.819200
vt 0.605612 0.825526
vt 0.325386 0.729713
vt 0.361027 0.647516
vt 0.330323 0.733249
vt 0.257276 0.787481
vt 0.169641 0.803456
vt 0.260239 0.792477
vt 0.169389 0.809675
vt 0.085881 0.773691
vt 0.022472 0.709046
vt 0.082464 0.778447
vt 0.005891 0.619527
vt 0.028073 0.706455
vt 0.197526 0.457387
vt 0.109227 0.479489
vt 0.106675 0.474585
vt 0.284451 0.488615
vt 0.197277 0.463586
vt 0.344443 0.558016
vt 0.281033 0.493370
vt 0.355628 0.646574
vt 0.338842 0.560607
vt 0.036596 0.533793
vt 0.011857 0.619695
vt 0.896447 0.838280
vt 0.852910 0.956514
vt 0.890097 0.831341
vt 0.860774 0.833203
vt 0.860617 0.831457
vt 0.853637 0.839885
vt 0.859752 0.955956
vt 0.860725 0.839435
vt 0.890075 0.833171
vt 0.889901 0.839448
vt 0.853673 0.838349
vt 0.663615 0.992106
vt 0.991858 0.992230
vt 0.085696 0.992290
vt 0.498542 0.838685
vt 0.318752 0.727638
vt 0.678534 0.819200
vt 0.838969 0.819200
vt 0.085418 0.819200
vt 0.233697 0.819200
vt 0.388052 0.819200
vt 0.536331 0.819200
vt 0.041113 0.537276
vt 0.860672 0.839817
vn -1.0000 -0.0011 -0.0000
vn -0.0000 0.0000 1.0000
vn 1.0000 -0.0011 0.0000
vn -1.0000 0.0000 -0.0000
vn 1.0000 0.0000 0.0000
vn -0.0000 -0.0000 -1.0000
vn 0.7428 -0.6696 0.0000
vn -0.7461 0.6659 0.0000
vn -0.7428 -0.6696 0.0000
vn 0.7461 0.6659 0.0000
vn 0.7904 -0.6127 0.0000
vn -0.7904 -0.6127 -0.0000
vn 0.7421 -0.6624 -0.1025
vn 0.0000 -1.0000 -0.0000
vn 0.0000 0.0027 -1.0000
vn 0.0476 -0.9989 0.0022
vn -0.1351 0.0001 0.9908
vn -0.0075 0.9999 -0.0116
vn -0.9961 -0.0162 -0.0873
vn -0.0008 -0.9999 0.0108
vn 0.9962 0.0024 0.0875
vn 0.9971 0.0100 0.0751
vn -0.0874 0.0106 0.9961
vn -0.0000 0.0027 1.0000
vn 0.7421 -0.6624 0.1025
vn -0.7421 -0.6624 -0.1025
vn -0.7421 -0.6624 0.1025
vn -0.7903 -0.6127 -0.0000
vn 0.9893 0.0127 0.1453
vn 0.9970 0.0105 0.0762
vn -0.0875 0.0107 0.9961
vn 0.6456 0.0099 0.7636
vn 0.0861 0.0096 0.9962
vn 0.6459 0.0115 0.7633
vn 0.9619 0.0239 0.2722
vn 0.9654 0.0114 0.2606
vn 0.7648 0.0091 -0.6442
vn 0.9964 0.0078 -0.0841
vn 0.9965 -0.0044 -0.0831
vn 0.3403 0.0091 -0.9403
vn -0.6441 0.0091 -0.7649
vn -0.1753 0.0091 -0.9845
vn -0.1755 0.0092 -0.9844
vn -0.9403 0.0091 -0.3403
vn -0.9844 0.0091 0.1754
vn -0.7648 0.0091 0.6442
vn -0.2565 0.0091 0.9665
vn -0.2563 0.0086 0.9666
vn -0.1357 0.4984 0.8563
vn 0.0000 1.0000 0.0000
vn -0.6253 0.5757 0.5269
vn 0.5967 0.3772 0.7083
vn 0.7689 0.5757 0.2783
vn 0.9117 0.3772 -0.1626
vn 0.6254 0.5757 -0.5267
vn 0.3152 0.3772 -0.8709
vn -0.1435 0.5757 -0.8050
vn -0.5967 0.3772 -0.7083
vn -0.7689 0.5757 -0.2783
vn -0.9117 0.3772 0.1626
vn 0.1754 0.0000 0.9845
vn 0.0893 0.5314 0.8424
vn 0.9403 0.0000 0.3403
vn 0.7649 0.0000 -0.6442
vn -0.1755 0.0000 -0.9845
vn -0.9403 -0.0000 -0.3403
vn -0.7649 0.0000 0.6442
vn -0.0023 -0.9999 -0.0110
vn -0.0001 -1.0000 -0.0002
vn 0.0008 -1.0000 -0.0003
vn -0.0024 -0.9999 -0.0110
vn 0.9934 -0.0747 0.0866
vn 0.9961 -0.0131 0.0872
vn 0.9958 0.0099 0.0905
vn 0.9946 0.0353 0.0971
vn 0.9909 0.1003 0.0893
vn 0.1035 0.7079 -0.6987
vn 0.1358 0.0013 -0.9907
vn 0.1350 0.0013 -0.9908
vn 0.0982 0.7097 -0.6976
vn -0.1198 0.9925 -0.0233
vn -0.1300 0.9912 -0.0255
vn -0.0871 0.0087 0.9962
vn -0.0882 0.0087 0.9961
vn 0.0877 0.0087 0.9961
vn -0.0912 0.0087 0.9958
vn -0.0826 0.0090 0.9965
vn 0.9960 0.0041 0.0895
vn -0.3403 0.0000 0.9403
vn 0.6442 0.0000 0.7649
vn 0.9845 0.0000 -0.1755
vn 0.3403 0.0000 -0.9403
vn -0.6442 0.0000 -0.7649
vn -0.9845 -0.0000 0.1755
vn 0.0007 -1.0000 0.0003
s off
f 1/1/1 2/2/1 3/3/1
f 4/4/2 5/5/2 6/6/2
f 7/7/3 8/8/3 6/6/3
f 9/9/4 10/10/4 11/11/4
f 12/12/5 13/13/5 14/14/5
f 13/15/6 15/16/6 16/17/6
f 2/18/7 15/19/7 17/20/7
f 10/21/8 18/22/8 16/23/8
f 19/24/2 14/25/2 18/26/2
f 6/27/9 19/28/9 4/29/9
f 19/24/2 20/30/2 9/31/2
f 13/32/10 18/22/10 14/33/10
f 15/16/6 10/34/6 16/17/6
f 15/19/9 8/35/9 17/20/9
f 2/36/11 9/37/11 11/38/11
f 6/39/12 21/40/12 12/41/12
f 5/42/13 19/28/13 9/43/13
f 7/44/14 3/45/14 22/46/14
f 2/2/15 22/47/15 3/3/15
f 23/48/16 24/49/16 25/50/16
f 26/51/17 27/52/17 24/53/17
f 28/54/18 29/55/18 30/56/18
f 31/57/19 28/58/19 32/59/19
f 32/60/20 33/61/20 31/62/20
f 33/63/21 30/64/21 29/65/21
f 26/66/22 34/67/22 35/68/22
f 31/69/23 29/70/23 36/71/23
f 37/72/4 38/73/4 39/74/4
f 40/75/5 41/76/5 42/77/5
f 42/77/2 38/73/2 40/75/2
f 37/78/6 43/79/6 44/80/6
f 45/81/4 46/82/4 47/83/4
f 48/84/6 49/85/6 45/81/6
f 50/86/2 46/82/2 51/87/2
f 52/88/5 53/89/5 54/90/5
f 54/90/2 55/91/2 52/88/2
f 56/92/4 55/91/4 57/93/4
f 53/89/6 58/94/6 56/95/6
f 59/96/5 60/97/5 61/98/5
f 62/99/2 61/98/2 63/100/2
f 62/99/4 64/101/4 65/102/4
f 60/97/6 65/103/6 64/104/6
f 66/105/4 67/106/4 68/107/4
f 69/108/6 70/109/6 66/105/6
f 71/110/5 69/108/5 72/111/5
f 67/106/2 72/112/2 68/107/2
f 73/113/6 74/114/6 75/115/6
f 76/116/5 73/113/5 77/117/5
f 78/118/2 77/119/2 79/120/2
f 75/115/4 78/118/4 79/120/4
f 80/121/6 81/122/6 82/123/6
f 83/124/5 80/121/5 84/125/5
f 85/126/2 84/127/2 86/128/2
f 82/123/4 85/126/4 86/128/4
f 87/129/6 88/130/6 89/131/6
f 90/132/5 87/129/5 91/133/5
f 91/134/2 92/135/2 90/136/2
f 89/131/4 92/135/4 93/137/4
f 51/87/5 48/138/5 50/86/5
f 1/139/24 6/6/24 5/5/24
f 2/2/6 17/140/6 8/8/6
f 1/1/1 5/141/1 2/2/1
f 7/7/3 22/47/3 8/8/3
f 9/9/4 20/142/4 10/10/4
f 12/12/5 21/143/5 13/13/5
f 13/15/6 21/144/6 15/16/6
f 2/18/25 11/145/25 15/19/25
f 10/21/8 20/146/8 18/22/8
f 19/24/2 12/147/2 14/25/2
f 6/27/26 12/148/26 19/28/26
f 19/24/2 18/26/2 20/30/2
f 13/32/10 16/23/10 18/22/10
f 15/16/6 11/149/6 10/34/6
f 15/19/27 21/150/27 8/35/27
f 2/36/11 5/151/11 9/37/11
f 6/39/28 8/152/28 21/40/28
f 5/42/7 4/29/7 19/28/7
f 7/44/14 1/153/14 3/45/14
f 2/2/15 8/8/15 22/47/15
f 23/48/16 26/154/16 24/49/16
f 26/51/17 35/155/17 27/52/17
f 28/54/18 36/156/18 29/55/18
f 31/57/19 36/157/19 28/58/19
f 32/60/20 94/158/20 33/61/20
f 33/63/29 94/159/29 30/64/29
f 26/66/30 23/160/30 34/67/30
f 31/69/31 33/161/31 29/70/31
f 37/72/4 44/162/4 38/73/4
f 40/75/5 43/79/5 41/76/5
f 42/77/2 39/74/2 38/73/2
f 37/78/6 41/76/6 43/79/6
f 45/81/4 49/85/4 46/82/4
f 48/84/6 95/163/6 49/85/6
f 50/86/2 47/83/2 46/82/2
f 52/88/5 96/164/5 53/89/5
f 54/90/2 57/93/2 55/91/2
f 56/92/4 58/165/4 55/91/4
f 53/89/6 96/164/6 58/94/6
f 59/96/5 97/166/5 60/97/5
f 62/99/2 59/96/2 61/98/2
f 62/99/4 63/100/4 64/101/4
f 60/97/6 97/166/6 65/103/6
f 66/105/4 70/109/4 67/106/4
f 69/108/6 98/167/6 70/109/6
f 71/110/5 98/167/5 69/108/5
f 67/106/2 71/168/2 72/112/2
f 73/113/6 99/169/6 74/114/6
f 76/116/5 99/169/5 73/113/5
f 78/118/2 76/170/2 77/119/2
f 75/115/4 74/114/4 78/118/4
f 80/121/6 100/171/6 81/122/6
f 83/124/5 100/171/5 80/121/5
f 85/126/2 83/172/2 84/127/2
f 82/123/4 81/122/4 85/126/4
f 87/129/6 101/173/6 88/130/6
f 90/132/5 101/173/5 87/129/5
f 91/134/2 93/137/2 92/135/2
f 89/131/4 88/130/4 92/135/4
f 51/87/5 95/174/5 48/138/5
f 1/139/24 7/7/24 6/6/24
f 152/175/14 148/176/14 138/177/14
f 111/178/14 152/175/14 138/177/14
s 1
f 102/179/32 103/180/33 104/181/34
f 102/179/32 105/182/35 106/183/36
f 107/184/37 108/185/38 109/186/39
f 110/187/40 111/188/37 107/189/37
f 112/190/41 113/191/42 114/192/43
f 112/190/41 115/193/44 116/194/41
f 117/195/45 115/193/44 118/196/44
f 117/195/45 119/197/46 120/198/45
f 119/197/46 121/199/47 122/200/48
f 123/201/49 124/202/50 125/203/51
f 124/202/50 126/204/52 127/205/53
f 124/202/50 128/206/54 129/207/55
f 124/202/50 130/208/56 131/209/57
f 124/202/50 132/210/58 133/211/59
f 124/202/50 134/212/60 125/203/51
f 123/213/49 135/214/61 136/215/62
f 135/214/61 126/216/52 136/215/62
f 126/216/52 137/217/63 127/218/53
f 137/219/63 128/220/54 127/221/53
f 128/220/54 138/222/64 129/223/55
f 138/222/64 130/224/56 129/223/55
f 130/224/56 139/225/65 131/226/57
f 139/225/65 132/227/58 131/226/57
f 132/227/58 140/228/66 133/229/59
f 140/228/66 134/230/60 133/229/59
f 134/230/60 141/231/67 125/232/51
f 141/231/67 123/213/49 125/232/51
f 122/233/14 135/234/14 142/235/14
f 142/235/14 119/236/14 122/233/14
f 120/237/14 141/238/14 143/239/14
f 143/239/14 115/240/14 120/237/14
f 144/241/14 115/240/14 140/242/14
f 139/243/68 116/244/69 144/241/14
f 145/245/14 111/246/14 138/247/14
f 137/248/14 108/249/14 145/245/14
f 146/250/14 106/251/14 137/248/14
f 146/250/14 147/252/14 102/253/14
f 148/254/70 113/255/71 139/243/68
f 113/191/42 110/187/40 114/192/43
f 149/256/72 109/186/39 27/52/73
f 105/182/35 25/257/74 106/183/36
f 149/258/72 150/259/75 151/260/76
f 150/261/77 23/262/78 25/257/79
f 34/263/80 27/264/81 35/265/82
f 105/182/35 151/266/76 150/261/75
f 121/199/47 28/58/83 30/64/84
f 28/58/83 147/267/85 32/59/86
f 122/200/48 30/64/84 94/159/87
f 32/59/86 122/200/48 94/159/87
f 25/257/74 108/185/38 106/183/36
f 24/53/88 109/186/39 108/185/38
f 102/179/32 147/267/85 103/180/33
f 102/179/32 104/181/34 105/182/35
f 107/184/37 111/268/37 108/185/38
f 110/187/40 152/269/40 111/188/37
f 112/190/41 116/194/41 113/191/42
f 112/190/41 118/196/44 115/193/44
f 117/195/45 120/198/45 115/193/44
f 117/195/45 153/270/46 119/197/46
f 119/197/46 153/270/46 121/199/47
f 123/201/49 136/271/62 124/202/50
f 124/202/50 136/271/62 126/204/52
f 124/202/50 127/205/53 128/206/54
f 124/202/50 129/207/55 130/208/56
f 124/202/50 131/209/57 132/210/58
f 124/202/50 133/211/59 134/212/60
f 123/213/49 142/272/89 135/214/61
f 135/214/61 146/273/90 126/216/52
f 126/216/52 146/273/90 137/217/63
f 137/219/63 145/274/91 128/220/54
f 128/220/54 145/274/91 138/222/64
f 138/222/64 148/275/92 130/224/56
f 130/224/56 148/275/92 139/225/65
f 139/225/65 144/276/93 132/227/58
f 132/227/58 144/276/93 140/228/66
f 140/228/66 143/277/94 134/230/60
f 134/230/60 143/277/94 141/231/67
f 141/231/67 142/272/89 123/213/49
f 122/233/14 147/252/14 135/234/14
f 142/235/14 141/238/14 119/236/14
f 120/237/14 119/236/14 141/238/14
f 143/239/14 140/242/14 115/240/14
f 144/241/14 116/244/69 115/240/14
f 139/243/68 113/255/71 116/244/69
f 145/245/14 108/249/14 111/246/14
f 137/248/14 106/251/14 108/249/14
f 146/250/14 102/253/14 106/251/14
f 146/250/14 135/234/14 147/252/14
f 148/254/70 152/278/95 113/255/71
f 113/191/42 152/269/40 110/187/40
f 105/182/35 150/261/75 25/257/74
f 149/258/72 27/264/73 150/259/75
f 150/261/77 34/279/80 23/262/78
f 34/263/80 150/259/77 27/264/81
f 121/199/47 103/180/33 28/58/83
f 28/58/83 103/180/33 147/267/85
f 122/200/48 121/199/47 30/64/84
f 32/59/86 147/267/85 122/200/48
f 25/257/74 24/53/88 108/185/38
f 24/53/88 27/52/73 109/186/39
